{"glyphs":{"0":{"ha":799,"x_min":83,"x_max":715,"o":"m 83 642 q 107 767 83 707 q 172 874 131 828 q 272 947 214 919 q 399 975 329 975 q 524 948 467 975 q 624 875 582 921 q 691 769 667 829 q 715 642 715 708 l 715 333 q 692 208 715 268 q 626 101 668 147 q 525 28 583 56 q 399 0 467 0 q 273 27 331 0 q 173 100 215 54 q 107 206 131 146 q 83 333 83 267 l 83 642 m 246 333 q 257 272 246 301 q 288 218 268 242 q 336 181 308 194 q 399 167 364 167 q 461 181 433 167 q 509 218 489 194 q 540 272 529 242 q 551 333 551 301 l 551 642 q 540 702 551 672 q 508 756 529 732 q 460 795 488 781 q 399 810 432 810 q 338 795 365 810 q 289 756 310 781 q 257 702 268 732 q 246 642 246 672 l 246 333 z "},"1":{"ha":492,"x_min":83,"x_max":408,"o":"m 83 685 q 99 717 83 704 q 169 783 135 750 q 236 849 203 817 q 310 919 272 885 q 385 990 347 954 l 397 1001 q 408 996 408 1013 l 408 42 q 397 11 408 22 q 367 0 386 0 l 288 0 q 257 11 268 0 q 246 42 246 22 l 246 629 l 176 564 l 96 485 q 83 489 83 472 l 83 685 z "},"2":{"ha":799,"x_min":83,"x_max":715,"o":"m 83 121 q 124 260 83 203 q 235 357 165 317 l 318 406 q 401 451 361 428 q 456 490 431 469 q 499 533 481 510 q 529 587 518 557 q 540 654 540 617 q 519 737 540 700 q 457 797 497 774 q 399 810 429 810 q 344 796 369 810 q 299 760 318 782 q 269 711 281 739 q 258 654 258 683 l 258 642 q 246 629 258 629 l 108 629 q 96 642 96 629 l 96 654 q 119 775 96 717 q 182 878 142 833 q 278 949 222 922 q 399 975 333 975 q 519 949 464 975 q 616 880 575 924 q 680 778 657 836 q 703 654 703 719 q 680 525 703 579 q 617 428 657 471 q 523 353 576 386 q 407 290 469 321 q 368 269 390 282 q 326 242 346 257 q 292 208 306 226 q 279 168 279 190 l 674 167 q 704 156 693 167 q 715 125 715 144 l 715 42 q 704 11 715 22 q 674 0 693 0 l 125 0 q 94 11 106 0 q 83 42 83 22 l 83 121 l 83 121 z "},"3":{"ha":828,"x_min":99,"x_max":706,"o":"m 99 340 q 106 346 99 346 l 256 346 q 261 340 261 346 l 261 333 q 271 272 261 300 q 317 197 282 228 q 401 165 353 165 q 460 179 433 165 q 505 215 486 193 q 533 267 524 238 q 543 326 543 296 q 531 392 543 363 q 497 447 518 422 q 449 492 476 472 q 393 529 422 513 l 351 554 l 303 579 q 300 588 294 582 l 450 807 l 169 807 q 139 818 150 807 q 128 849 128 829 l 128 932 q 139 963 128 951 q 169 974 150 974 l 647 974 q 678 963 667 974 q 689 932 689 951 l 689 838 q 682 815 689 825 q 649 765 665 790 q 615 717 632 740 l 540 611 q 663 489 621 558 q 706 321 706 419 q 683 199 706 257 q 619 97 660 142 q 524 26 579 53 q 401 0 468 0 q 276 27 332 0 q 181 100 221 54 q 120 206 142 146 q 99 333 99 267 l 99 340 l 99 340 z "},"4":{"ha":847,"x_min":83,"x_max":764,"o":"m 83 308 q 92 333 83 322 l 536 957 q 571 975 547 975 l 674 975 q 704 964 693 975 q 715 933 715 953 l 715 340 l 740 340 q 764 317 764 340 l 764 199 q 740 174 764 174 l 715 174 l 715 42 q 704 11 715 22 q 674 0 693 0 l 593 0 q 563 11 574 0 q 551 42 551 22 l 551 174 l 125 174 q 94 185 106 174 q 83 215 83 196 l 83 308 m 551 340 l 551 714 l 286 340 l 551 340 z "},"5":{"ha":799,"x_min":83,"x_max":715,"o":"m 83 125 q 94 156 83 144 q 125 167 106 167 l 444 167 q 522 203 493 167 q 551 286 551 240 q 544 331 551 306 q 506 383 532 363 q 444 404 481 404 l 161 404 q 131 415 142 404 q 119 446 119 426 l 119 933 q 131 964 119 953 q 161 975 142 975 l 601 975 q 632 964 621 975 q 643 933 643 953 l 643 851 q 632 821 643 832 q 601 810 621 810 l 283 810 l 283 571 l 444 571 q 551 548 501 571 q 637 485 600 525 q 694 394 674 446 q 715 286 715 343 q 695 178 715 229 q 638 87 675 126 q 552 24 601 47 q 444 0 503 0 l 125 0 q 94 11 106 0 q 83 42 83 22 l 83 125 z "},"6":{"ha":799,"x_min":83,"x_max":715,"o":"m 83 333 q 93 419 83 375 q 125 499 103 463 l 385 954 q 421 975 399 975 l 515 975 q 558 958 547 975 q 551 913 568 940 l 410 667 q 533 637 476 664 q 629 564 589 610 q 692 458 669 518 q 715 333 715 399 q 692 208 715 268 q 626 101 668 147 q 525 28 583 56 q 399 0 467 0 q 273 27 331 0 q 173 100 215 54 q 107 206 131 146 q 83 333 83 267 m 257 396 q 246 333 246 363 q 257 272 246 301 q 288 218 268 242 q 336 181 308 194 q 399 167 364 167 q 461 181 433 167 q 509 218 489 194 q 540 272 529 242 q 551 333 551 301 q 540 395 551 365 q 509 449 529 425 q 461 486 489 472 q 399 500 433 500 q 310 470 346 500 q 257 396 274 440 z "},"7":{"ha":799,"x_min":83,"x_max":715,"o":"m 83 933 q 94 964 83 953 q 125 975 106 975 l 674 975 q 704 964 693 975 q 715 933 715 953 l 715 833 l 368 25 q 329 0 357 0 l 243 0 q 203 16 214 0 q 204 58 193 32 l 528 810 l 125 810 q 94 821 106 810 q 83 851 83 832 l 83 933 l 83 933 z "},"8":{"ha":799,"x_min":83,"x_max":715,"o":"m 83 294 q 107 410 83 353 q 172 510 131 468 q 119 597 138 544 q 101 699 101 650 q 121 803 101 753 q 175 891 140 853 q 258 952 210 929 q 363 975 306 975 l 436 975 q 540 953 492 975 q 623 892 588 931 q 678 804 658 854 q 697 699 697 754 q 678 598 697 646 q 625 511 660 550 q 693 412 671 463 q 715 294 715 361 q 694 183 715 236 q 636 90 674 131 q 547 24 599 49 q 436 0 496 0 l 363 0 q 253 24 304 0 q 164 90 201 49 q 105 183 126 131 q 83 294 83 236 m 246 294 q 254 247 246 269 q 278 206 263 224 q 315 178 293 189 q 363 167 336 167 l 436 167 q 483 178 463 167 q 519 206 504 189 q 543 247 535 224 q 551 294 551 269 q 543 342 551 319 q 519 383 535 365 q 483 413 504 401 q 436 424 463 424 l 363 424 q 315 413 336 424 q 278 383 293 401 q 254 342 263 365 q 246 294 246 319 m 264 699 q 272 660 264 679 q 292 625 279 640 q 324 600 306 610 q 363 590 342 590 l 436 590 q 508 624 481 590 q 535 699 535 657 q 508 775 535 740 q 436 810 481 810 l 363 810 q 291 775 318 810 q 264 699 264 740 z "},"9":{"ha":799,"x_min":83,"x_max":715,"o":"m 83 642 q 107 767 83 707 q 172 874 131 828 q 272 947 214 919 q 399 975 329 975 q 524 948 467 975 q 624 875 582 921 q 691 769 667 829 q 715 642 715 708 q 706 556 715 599 q 674 476 696 514 l 413 21 q 397 6 407 11 q 376 0 388 0 l 283 0 q 241 17 251 0 q 247 63 231 35 l 389 308 q 267 338 324 310 q 170 413 211 367 q 106 517 129 458 q 83 642 83 576 m 257 703 q 246 642 246 669 q 257 580 246 610 q 288 527 268 550 q 337 490 308 504 q 399 475 365 475 q 461 490 433 475 q 509 527 489 504 q 540 580 529 550 q 551 642 551 610 q 540 702 551 672 q 508 756 529 732 q 460 795 488 781 q 399 810 432 810 q 312 778 350 810 q 257 703 274 747 z "},"\u0000":{"ha":0,"x_min":0,"x_max":0,"o":""},"\r":{"ha":0,"x_min":0,"x_max":0,"o":""}," ":{"ha":444,"x_min":0,"x_max":0,"o":""},"\n":{"ha":0,"x_min":0,"x_max":0,"o":""},"A":{"ha":972,"x_min":26,"x_max":946,"o":"m 76 0 q 38 16 49 0 q 38 57 26 32 l 403 949 q 442 975 414 975 l 531 975 q 569 949 558 975 l 935 57 q 935 16 946 32 q 896 0 924 0 l 788 0 q 782 4 782 0 l 779 8 q 703 186 740 97 q 632 365 667 275 q 560 543 596 454 q 486 722 524 632 q 431 583 458 651 q 375 444 403 514 q 319 306 347 374 q 260 167 290 238 l 624 167 q 663 140 651 167 l 696 57 q 696 16 707 32 q 657 0 685 0 l 76 0 l 76 0 z "},"B":{"ha":836,"x_min":96,"x_max":808,"o":"m 107 918 q 107 960 96 944 q 146 975 118 975 l 458 975 q 563 959 514 975 q 650 912 613 943 q 709 834 688 881 q 731 728 731 788 q 717 651 731 683 q 681 583 704 619 q 778 467 747 539 q 808 318 808 396 q 790 201 808 258 q 735 99 771 144 q 649 27 700 54 q 532 0 597 0 l 140 0 q 110 11 121 0 q 99 42 99 22 l 99 589 q 110 619 99 608 q 140 631 121 631 l 224 631 l 107 918 m 532 167 q 583 180 563 167 q 617 215 604 193 q 635 264 629 238 q 640 318 640 290 q 632 366 640 340 q 609 414 624 392 q 574 451 594 436 q 532 465 554 465 l 261 465 l 261 167 l 532 167 m 328 810 q 364 720 346 765 q 401 631 382 675 l 458 631 q 537 657 507 631 q 567 728 567 683 q 537 792 567 774 q 458 810 507 810 l 328 810 z "},"C":{"ha":1000,"x_min":28,"x_max":972,"o":"m 28 488 q 63 675 28 585 q 162 835 99 765 q 312 947 225 906 q 500 989 399 989 l 514 989 q 526 976 526 989 l 526 835 q 514 821 526 821 l 500 821 q 376 793 433 821 q 278 719 319 765 q 213 613 236 674 q 190 488 190 553 q 213 363 190 422 q 277 256 236 303 q 375 182 318 210 q 500 154 432 154 q 624 182 567 154 q 722 256 681 210 q 787 362 764 301 q 810 488 810 422 l 810 500 q 822 513 810 513 l 960 513 q 972 500 972 513 l 972 488 q 937 298 972 389 q 839 138 901 207 q 690 27 776 68 q 500 -14 603 -14 q 314 28 400 -14 q 164 139 228 69 q 64 299 100 208 q 28 488 28 389 z "},"D":{"ha":914,"x_min":96,"x_max":872,"o":"m 107 918 q 107 959 96 943 q 146 975 118 975 l 413 975 q 595 935 511 975 q 741 828 679 896 q 838 673 803 761 q 872 488 872 585 q 838 303 872 392 q 742 148 804 215 q 597 40 681 81 q 413 0 513 0 l 138 0 q 107 11 118 0 q 96 42 96 22 l 96 496 q 119 593 96 593 q 176 513 142 593 l 256 325 q 258 308 258 314 l 258 167 l 413 167 q 531 193 476 167 q 626 265 586 219 q 688 367 665 310 q 710 488 710 425 q 688 608 710 550 q 626 710 665 665 q 532 783 586 756 q 413 810 478 810 l 328 810 l 533 310 q 534 277 540 292 q 508 256 528 263 l 435 229 q 403 229 418 222 q 382 251 389 236 l 107 918 l 107 918 z "},"E":{"ha":781,"x_min":83,"x_max":739,"o":"m 83 933 q 94 964 83 953 q 125 975 106 975 l 697 975 q 728 964 717 975 q 739 933 739 953 l 739 851 q 728 821 739 832 q 697 810 717 810 l 246 810 l 246 629 l 589 629 q 619 618 608 629 q 631 588 631 607 l 631 504 q 619 474 631 485 q 589 463 608 463 l 246 463 l 246 167 l 697 167 q 728 156 717 167 q 739 125 739 144 l 739 42 q 728 11 739 22 q 697 0 717 0 l 125 0 q 94 11 106 0 q 83 42 83 22 l 83 933 l 83 933 z "},"F":{"ha":781,"x_min":83,"x_max":739,"o":"m 83 933 q 94 964 83 953 q 125 975 106 975 l 697 975 q 728 964 717 975 q 739 933 739 953 l 739 851 q 728 821 739 832 q 697 810 717 810 l 246 810 l 246 629 l 589 629 q 619 618 608 629 q 631 588 631 607 l 631 504 q 619 474 631 485 q 589 463 608 463 l 246 463 l 246 42 q 235 11 246 22 q 204 0 224 0 l 125 0 q 94 11 106 0 q 83 42 83 22 l 83 933 z "},"G":{"ha":1044,"x_min":42,"x_max":986,"o":"m 42 488 q 77 675 42 585 q 176 835 113 765 q 326 947 239 906 q 514 989 413 989 l 528 989 q 540 976 540 989 l 540 835 q 528 821 540 821 l 514 821 q 390 793 447 821 q 292 719 333 765 q 227 613 250 674 q 204 488 204 553 q 227 363 204 422 q 291 256 250 303 q 389 182 332 210 q 514 154 446 154 q 631 179 575 154 q 728 247 686 204 q 794 346 769 290 q 819 463 819 401 l 647 463 q 617 474 628 463 q 606 504 606 485 l 606 588 q 617 618 606 607 q 647 629 628 629 l 965 629 q 971 625 968 629 l 971 619 q 983 554 979 589 q 985 519 985 536 q 986 486 986 503 q 951 297 986 388 q 853 138 915 207 q 703 27 790 68 q 514 -14 617 -14 q 328 28 414 -14 q 178 139 242 69 q 78 299 114 208 q 42 488 42 389 z "},"H":{"ha":869,"x_min":83,"x_max":786,"o":"m 125 0 q 94 11 106 0 q 83 42 83 22 l 83 933 q 94 964 83 953 q 125 975 106 975 l 204 975 q 235 964 224 975 q 246 933 246 953 l 246 603 l 624 771 l 624 933 q 635 964 624 953 q 665 975 646 975 l 744 975 q 775 964 764 975 q 786 933 786 953 l 786 42 q 775 11 786 22 q 744 0 764 0 l 665 0 q 635 11 646 0 q 624 42 624 22 l 624 336 l 246 169 l 246 42 q 235 11 246 22 q 204 0 224 0 l 125 0 m 246 350 l 624 517 l 624 589 l 246 422 l 246 350 z "},"I":{"ha":329,"x_min":83,"x_max":246,"o":"m 83 933 q 94 964 83 953 q 125 975 106 975 l 204 975 q 235 964 224 975 q 246 933 246 953 l 246 42 q 235 11 246 22 q 204 0 224 0 l 125 0 q 94 11 106 0 q 83 42 83 22 l 83 933 z "},"J":{"ha":585,"x_min":14,"x_max":501,"o":"m 14 143 q 21 149 14 149 l 26 149 q 151 178 93 150 q 250 253 208 207 q 315 360 292 300 q 339 488 339 421 l 339 810 l 229 810 q 199 821 210 810 q 188 851 188 832 l 188 933 q 199 964 188 953 q 229 975 210 975 l 460 975 q 490 964 479 975 q 501 933 501 953 l 501 488 q 467 304 501 392 q 371 149 432 217 q 226 40 310 81 q 42 0 142 0 l 28 0 q 14 14 14 0 l 14 143 z "},"K":{"ha":889,"x_min":83,"x_max":786,"o":"m 83 933 q 94 964 83 953 q 125 975 106 975 l 204 975 q 235 964 224 975 q 246 933 246 953 l 246 343 l 603 954 q 639 975 617 975 l 733 975 q 776 958 765 975 q 769 913 786 940 l 521 488 l 769 63 q 776 17 786 35 q 733 0 765 0 l 639 0 q 603 21 617 0 l 426 326 l 247 21 q 232 6 242 11 q 211 0 222 0 l 125 0 q 94 11 106 0 q 83 42 83 22 l 83 933 z "},"L":{"ha":753,"x_min":83,"x_max":739,"o":"m 125 0 q 94 11 106 0 q 83 42 83 22 l 83 933 q 94 964 83 953 q 125 975 106 975 l 204 975 q 235 964 224 975 q 246 933 246 953 l 246 167 l 697 167 q 728 156 717 167 q 739 125 739 144 l 739 42 q 728 11 739 22 q 697 0 717 0 l 125 0 l 125 0 z "},"M":{"ha":1379,"x_min":26,"x_max":1353,"o":"m 76 1 q 38 17 49 1 q 38 58 26 33 l 403 949 q 442 975 414 975 l 531 975 q 569 950 558 975 l 690 657 l 810 949 q 849 975 821 975 l 939 975 q 978 949 967 975 l 1342 57 q 1342 16 1353 32 q 1303 0 1331 0 l 1217 0 q 1194 8 1204 0 q 1178 26 1183 15 l 893 722 l 779 440 l 935 57 q 935 16 946 32 q 896 0 924 0 l 483 0 q 444 16 456 0 q 444 57 433 32 l 601 442 l 486 722 l 201 28 q 163 1 190 1 l 76 1 m 667 167 l 714 167 l 690 225 l 667 167 z "},"N":{"ha":869,"x_min":83,"x_max":786,"o":"m 83 933 q 94 964 83 953 q 125 975 106 975 l 222 975 q 243 969 233 975 q 258 954 253 964 l 625 313 l 625 810 l 418 810 q 388 821 399 810 q 376 851 376 832 l 376 933 q 388 964 376 953 q 418 975 399 975 l 744 975 q 775 964 764 975 q 786 933 786 953 l 786 42 q 775 11 786 22 q 744 0 764 0 l 649 0 q 611 21 625 0 l 246 671 l 246 42 q 235 11 246 22 q 204 0 224 0 l 125 0 q 94 11 106 0 q 83 42 83 22 l 83 933 z "},"O":{"ha":1069,"x_min":28,"x_max":1042,"o":"m 535 -14 q 340 26 432 -14 q 179 133 249 65 q 69 292 110 200 q 28 488 28 383 q 68 683 28 592 q 177 842 108 774 q 338 949 246 910 q 535 989 431 989 q 730 950 638 989 q 892 843 822 911 q 1001 684 961 775 q 1042 488 1042 593 q 1001 293 1042 385 q 892 133 961 201 q 731 26 822 65 q 535 -14 639 -14 m 199 488 q 224 362 199 422 q 295 256 250 301 q 402 182 340 210 q 535 154 464 154 q 668 181 607 154 q 774 254 729 208 q 845 360 819 300 q 871 488 871 421 q 846 615 871 554 q 776 721 821 675 q 669 794 731 767 q 535 821 607 821 q 401 794 463 821 q 295 721 340 767 q 224 615 250 675 q 199 488 199 554 m 457 488 q 481 545 457 522 q 540 568 506 568 q 599 546 576 568 q 622 488 622 524 q 599 430 622 451 q 540 408 575 408 q 483 431 508 408 q 457 488 457 454 z "},"P":{"ha":850,"x_min":104,"x_max":808,"o":"m 124 911 q 115 958 106 940 q 160 975 125 975 l 493 975 q 617 952 560 975 q 717 888 674 929 q 784 789 760 846 q 808 664 808 732 q 785 540 808 597 q 719 439 761 482 q 619 371 676 396 q 493 346 561 346 l 267 346 l 267 42 q 256 11 267 22 q 225 0 244 0 l 146 0 q 115 11 126 0 q 104 42 104 22 l 104 471 q 115 501 104 490 q 146 513 126 513 l 376 513 l 124 911 m 558 528 q 623 583 600 549 q 646 664 646 618 q 603 769 646 728 q 493 810 561 810 l 375 810 l 558 528 z "},"Q":{"ha":1031,"x_min":28,"x_max":1003,"o":"m 28 493 q 65 685 28 593 q 167 847 101 776 q 322 958 233 917 q 515 999 411 999 q 707 958 618 999 q 862 849 796 918 q 965 688 928 779 q 1003 493 1003 596 q 965 297 1003 389 q 854 129 926 204 l 882 99 q 881 90 885 94 l 801 6 q 771 -10 789 -10 q 740 6 756 -10 l 683 67 l 683 21 q 679 15 683 17 l 675 14 q 595 -6 635 1 q 514 -14 556 -14 q 324 28 413 -14 q 170 140 236 69 q 66 301 104 210 q 28 493 28 393 m 218 618 q 194 493 194 556 q 217 367 194 428 q 283 259 240 306 q 384 184 325 213 q 515 156 443 156 l 536 156 l 536 408 q 515 407 532 407 q 453 429 481 407 q 425 488 425 451 q 452 546 425 524 q 515 568 479 568 q 578 546 551 568 q 606 488 606 524 q 595 451 606 468 q 568 424 585 435 q 738 250 657 339 q 811 363 786 299 q 836 493 836 426 q 813 618 836 557 q 747 727 789 679 q 645 803 704 775 q 515 832 586 832 q 416 815 463 832 q 331 770 369 799 q 265 703 293 742 q 218 618 236 664 z "},"R":{"ha":853,"x_min":101,"x_max":824,"o":"m 118 913 q 113 958 103 940 q 154 975 122 975 l 489 975 q 613 951 556 975 q 713 884 669 926 q 780 783 756 842 q 804 658 804 725 q 753 485 804 558 q 611 372 701 411 q 710 194 660 282 q 813 19 760 107 l 819 10 q 814 0 824 0 l 658 0 q 621 21 635 0 l 439 346 l 264 346 l 264 42 q 253 11 264 22 q 222 0 242 0 l 143 0 q 113 11 124 0 q 101 42 101 22 l 101 471 q 113 501 101 490 q 143 513 124 513 l 344 513 l 118 913 m 365 810 q 447 664 406 735 q 531 518 489 593 q 613 569 583 531 q 642 658 642 607 q 601 766 642 722 q 489 810 560 810 l 365 810 z "},"S":{"ha":739,"x_min":42,"x_max":697,"o":"m 42 690 q 63 797 42 746 q 119 888 83 849 q 205 951 156 928 q 313 975 254 975 l 601 975 q 632 964 621 975 q 643 933 643 953 l 643 851 q 632 821 643 832 q 601 810 621 810 l 313 810 q 251 788 279 810 q 213 735 222 767 q 204 690 204 711 q 224 617 204 649 q 288 579 243 586 q 314 575 300 576 q 343 572 328 574 l 385 571 l 426 571 q 533 547 483 571 q 619 485 582 524 q 676 394 656 446 q 697 286 697 342 q 677 178 697 229 q 621 87 657 126 q 535 24 585 47 q 426 0 486 0 l 111 0 q 81 11 92 0 q 69 42 69 22 l 69 125 q 81 156 69 144 q 111 167 92 167 l 426 167 q 489 188 463 167 q 528 242 515 208 q 535 286 535 265 q 511 368 535 344 q 431 399 488 392 l 396 401 l 358 403 q 278 411 319 404 q 183 444 226 419 q 109 507 140 469 q 60 591 78 544 q 42 690 42 638 z "},"T":{"ha":731,"x_min":14,"x_max":717,"o":"m 14 933 q 25 964 14 953 q 56 975 36 975 l 675 975 q 706 964 694 975 q 717 933 717 953 l 717 851 q 706 821 717 832 q 675 810 694 810 l 447 810 l 447 42 q 436 11 447 22 q 406 0 425 0 l 326 0 q 296 11 307 0 q 285 42 285 22 l 285 810 l 56 810 q 25 821 36 810 q 14 851 14 832 l 14 933 l 14 933 z "},"U":{"ha":869,"x_min":83,"x_max":786,"o":"m 436 0 q 297 31 361 0 q 185 113 232 61 q 110 231 138 164 q 83 372 83 299 l 83 933 q 94 964 83 953 q 125 975 106 975 l 204 975 q 235 964 224 975 q 246 933 246 953 l 246 372 q 260 297 246 331 q 326 203 279 239 q 436 167 374 167 q 511 184 476 167 q 571 231 546 201 q 610 297 596 260 q 625 372 625 333 l 625 933 q 636 964 625 953 q 667 975 647 975 l 744 975 q 775 964 764 975 q 786 933 786 953 l 786 372 q 760 233 786 300 q 687 114 733 165 q 576 31 640 63 q 436 0 511 0 z "},"V":{"ha":972,"x_min":26,"x_max":946,"o":"m 38 918 q 38 959 26 943 q 76 975 49 975 l 163 975 q 201 949 190 975 l 488 253 l 713 808 l 350 808 q 327 816 338 808 q 311 835 317 824 l 278 918 q 278 960 267 944 q 317 975 289 975 l 896 975 q 935 960 924 975 q 935 918 946 944 l 571 26 q 555 8 565 15 q 532 0 544 0 l 442 0 q 403 26 414 0 l 38 918 l 38 918 z "},"W":{"ha":1379,"x_min":26,"x_max":1353,"o":"m 38 917 q 38 958 26 942 q 76 974 49 974 l 163 974 q 201 947 190 974 l 486 253 l 601 533 l 444 918 q 444 960 433 944 q 483 975 456 975 l 896 975 q 935 960 924 975 q 935 918 946 944 l 779 535 l 893 253 l 1178 949 q 1217 975 1189 975 l 1303 975 q 1342 960 1331 975 q 1342 918 1353 944 l 978 26 q 962 8 972 15 q 939 0 951 0 l 849 0 q 826 8 836 0 q 810 26 815 15 l 690 319 l 569 26 q 531 0 558 0 l 442 0 q 403 26 414 0 l 38 917 m 690 751 l 714 808 l 667 808 l 690 751 z "},"X":{"ha":924,"x_min":40,"x_max":885,"o":"m 61 910 q 49 957 40 939 q 94 975 58 975 l 194 975 q 228 957 217 975 l 461 629 l 590 810 l 503 810 q 469 826 482 810 l 408 908 q 396 957 386 939 q 443 975 406 975 l 829 975 q 875 957 865 975 q 863 910 885 939 l 563 488 l 863 65 q 875 18 885 36 q 829 0 865 0 l 731 0 q 696 18 707 0 l 461 347 l 333 167 l 431 167 q 465 149 454 167 l 522 65 q 533 18 542 36 q 488 0 524 0 l 94 0 q 49 18 58 0 q 61 65 40 36 l 361 488 l 61 910 l 61 910 z "},"Y":{"ha":919,"x_min":38,"x_max":882,"o":"m 57 911 q 47 957 38 939 q 92 975 56 975 l 189 975 q 224 957 213 975 l 460 597 l 599 810 l 404 810 q 369 828 381 810 l 315 910 q 305 957 296 939 q 350 975 314 975 l 828 975 q 873 957 864 975 q 863 911 882 939 l 542 422 l 542 42 q 531 11 542 22 q 500 0 519 0 l 419 0 q 389 11 400 0 q 378 42 378 22 l 378 422 l 57 911 l 57 911 z "},"Z":{"ha":731,"x_min":14,"x_max":717,"o":"m 14 933 q 25 964 14 953 q 56 975 36 975 l 675 975 q 706 964 694 975 q 717 933 717 953 l 717 842 q 708 817 717 826 l 235 167 l 675 167 q 706 156 694 167 q 717 125 717 144 l 717 42 q 706 11 717 22 q 675 0 694 0 l 56 0 q 25 11 36 0 q 14 42 14 22 l 14 136 q 22 161 14 150 l 496 810 l 56 810 q 25 821 36 810 q 14 851 14 832 l 14 933 l 14 933 z "},"":{"ha":1419,"x_min":26,"x_max":1392,"o":"m 76 0 q 38 16 49 0 q 38 57 26 32 l 401 949 q 440 975 413 975 l 531 975 q 569 949 558 975 l 890 165 l 1104 165 q 1153 179 1133 165 q 1187 215 1174 193 q 1206 262 1200 236 q 1213 313 1213 288 q 1200 390 1213 358 q 1161 438 1186 419 q 1090 463 1129 458 q 1014 467 1050 467 l 889 464 l 885 464 q 878 468 879 464 l 813 621 q 819 631 807 631 l 829 631 q 864 630 847 631 q 897 628 881 629 q 931 626 914 626 q 965 625 947 625 q 1025 628 994 625 q 1082 642 1056 631 q 1125 674 1108 653 q 1142 733 1142 696 q 1131 769 1142 754 q 1105 792 1121 783 q 1070 805 1089 801 q 1033 808 1051 808 l 761 808 q 722 833 733 808 l 688 917 q 687 959 676 943 q 725 975 697 975 l 1033 975 q 1133 960 1083 975 q 1222 915 1183 944 q 1285 843 1261 886 q 1310 744 1310 800 q 1296 660 1310 699 q 1254 585 1282 621 q 1357 467 1322 538 q 1392 313 1392 396 q 1372 193 1392 250 q 1316 93 1353 136 q 1226 25 1279 50 q 1104 0 1172 0 l 810 0 q 771 26 782 0 l 486 721 l 260 167 l 599 167 q 638 142 626 167 l 674 58 q 674 16 685 32 q 635 0 664 0 l 76 0 l 76 0 z "},"":{"ha":1589,"x_min":26,"x_max":1547,"o":"m 76 0 q 38 16 49 0 q 38 57 26 32 l 401 949 q 440 975 413 975 l 1506 975 q 1536 964 1525 975 q 1547 933 1547 953 l 1547 850 q 1536 819 1547 831 q 1506 808 1525 808 l 626 808 l 701 628 l 1503 628 q 1533 617 1522 628 q 1544 586 1544 606 l 1544 504 q 1533 474 1544 485 q 1503 463 1522 463 l 769 463 l 890 165 l 1506 165 q 1536 154 1525 165 q 1547 124 1547 143 l 1547 42 q 1536 11 1547 22 q 1506 0 1525 0 l 810 0 q 771 26 782 0 l 486 721 l 260 167 l 586 167 q 625 142 614 167 l 660 58 q 660 16 671 32 q 621 0 649 0 l 76 0 l 76 0 z "},"":{"ha":1740,"x_min":13,"x_max":1713,"o":"m 24 0 q 18 10 13 0 l 21 18 q 117 257 69 139 q 214 493 165 375 q 312 729 263 611 q 410 967 361 847 l 413 971 q 418 975 413 975 l 532 975 q 571 949 560 975 l 890 167 l 1253 167 q 1372 193 1317 167 q 1466 265 1426 219 q 1528 367 1506 310 q 1550 488 1550 425 q 1528 608 1550 550 q 1466 710 1506 665 q 1372 783 1426 756 q 1253 810 1318 810 l 771 810 q 733 836 743 810 l 700 918 q 701 960 690 944 q 739 975 711 975 l 1253 975 q 1435 935 1351 975 q 1581 828 1519 896 q 1678 673 1643 761 q 1713 488 1713 585 q 1678 303 1713 392 q 1583 148 1644 215 q 1437 40 1521 81 q 1253 0 1353 0 l 810 0 q 771 26 782 0 l 485 722 l 260 167 l 574 167 q 613 140 601 167 l 646 57 q 646 16 657 32 q 607 0 635 0 l 24 0 l 24 0 z "},"":{"ha":1350,"x_min":26,"x_max":1324,"o":"m 76 0 q 38 16 49 0 q 38 57 26 32 l 403 949 q 442 975 414 975 l 531 975 q 569 949 558 975 l 860 240 l 1090 808 l 781 808 q 743 835 753 808 l 710 917 q 710 958 700 943 q 749 974 721 974 l 1274 974 q 1313 958 1301 974 q 1313 917 1324 943 l 949 26 q 933 8 943 15 q 910 0 922 0 l 810 0 q 771 26 782 0 l 486 721 l 260 167 l 549 167 q 572 159 561 167 q 588 140 582 151 l 619 57 q 619 15 631 31 q 581 0 608 0 l 76 0 l 76 0 z "},"":{"ha":1758,"x_min":26,"x_max":1732,"o":"m 76 0 q 38 16 49 0 q 38 57 26 32 l 403 949 q 442 975 414 975 l 531 975 q 569 949 558 975 l 861 240 l 981 533 l 824 918 q 824 960 813 944 q 863 975 835 975 l 1279 975 q 1318 959 1307 975 q 1318 917 1329 943 l 1157 535 l 1271 253 l 1557 949 q 1596 975 1568 975 l 1682 975 q 1721 959 1710 975 q 1721 918 1732 943 l 1356 26 q 1317 0 1344 0 l 1228 0 q 1189 26 1200 0 l 1068 319 l 949 26 q 933 8 943 15 q 910 0 922 0 l 810 0 q 771 26 782 0 l 486 721 l 260 167 l 563 167 q 601 142 590 167 l 636 58 q 636 16 647 32 q 597 0 625 0 l 76 0 m 1046 808 l 1069 751 l 1092 808 l 1046 808 z "},"":{"ha":1260,"x_min":96,"x_max":1232,"o":"m 107 918 q 107 960 96 944 q 146 975 118 975 l 458 975 q 563 959 514 975 q 650 912 613 943 q 709 834 688 881 q 731 728 731 788 q 717 651 731 683 q 681 583 704 619 q 778 467 747 539 q 808 318 808 396 q 790 201 808 258 q 735 99 771 144 q 649 27 700 54 q 532 0 597 0 l 140 0 q 110 11 121 0 q 99 42 99 22 l 99 589 q 110 619 99 608 q 140 631 121 631 l 224 631 l 107 918 m 671 964 q 675 975 653 975 l 883 975 q 988 958 939 975 q 1073 910 1036 942 q 1131 833 1110 879 q 1153 728 1153 788 q 1142 651 1153 689 q 1104 583 1129 617 q 1183 500 1153 550 q 1225 392 1213 450 q 1230 354 1228 372 q 1232 318 1232 336 q 1213 201 1232 258 q 1159 99 1194 144 q 1072 27 1124 54 q 956 0 1021 0 l 742 0 q 738 13 722 0 l 794 54 q 824 82 810 65 l 847 115 l 871 163 q 876 167 871 167 l 890 167 q 967 171 935 167 q 1022 190 1000 175 q 1053 235 1043 206 q 1064 318 1064 265 q 1053 392 1064 361 q 1022 433 1040 418 q 980 454 1003 447 q 931 463 957 461 q 879 465 904 465 l 874 465 q 868 469 869 465 l 867 474 q 826 547 851 518 q 769 608 801 576 l 758 619 q 763 631 744 631 l 822 631 q 883 632 847 631 q 942 644 919 633 q 978 672 963 651 q 990 728 990 690 q 972 782 990 761 q 919 806 954 803 l 878 810 l 810 810 q 803 815 804 810 l 801 819 q 786 860 796 842 q 761 896 776 878 q 729 924 747 908 l 671 964 m 261 465 l 261 167 l 532 167 q 583 180 563 167 q 617 215 604 193 q 635 264 629 238 q 640 318 640 290 q 632 366 640 340 q 609 414 624 392 q 574 451 594 436 q 532 465 554 465 l 261 465 m 328 810 q 364 720 346 765 q 401 631 382 675 l 458 631 q 537 657 507 631 q 567 728 567 683 q 537 792 567 774 q 458 810 507 810 l 328 810 z "},"":{"ha":1271,"x_min":28,"x_max":1229,"o":"m 28 488 q 63 675 28 586 q 162 831 99 764 q 312 936 225 897 q 501 975 399 975 l 522 975 q 542 956 542 975 l 542 824 q 528 810 542 810 l 514 810 q 390 785 447 810 q 289 716 332 760 q 221 613 246 672 q 196 488 196 554 q 221 364 196 422 q 288 262 246 306 q 389 192 331 218 q 514 167 447 167 l 958 167 q 1021 189 993 167 q 1060 243 1049 211 q 1067 286 1067 267 q 1058 343 1067 321 q 1031 378 1049 365 q 988 396 1013 390 q 929 404 963 401 l 844 404 q 737 427 786 404 q 651 490 688 450 q 594 581 614 529 q 574 690 574 632 q 594 797 574 746 q 651 888 615 849 q 737 951 688 928 q 844 975 786 975 l 1133 975 q 1164 964 1153 975 q 1175 933 1175 953 l 1175 851 q 1164 821 1175 832 q 1133 810 1153 810 l 844 810 q 783 788 811 810 q 744 735 754 767 q 736 690 736 711 q 756 617 736 649 q 819 579 775 586 q 846 575 832 576 q 875 572 860 574 l 917 571 l 958 571 q 1065 548 1015 571 q 1151 485 1114 525 q 1208 394 1188 446 q 1229 286 1229 343 q 1209 178 1229 229 q 1153 87 1189 126 q 1067 24 1117 47 q 958 0 1018 0 l 514 0 q 319 35 408 0 q 165 135 229 71 q 64 290 100 200 q 28 488 28 379 z "},"":{"ha":1313,"x_min":28,"x_max":1283,"o":"m 28 497 q 64 684 28 597 q 163 835 100 771 q 313 938 226 900 q 503 975 400 975 l 951 975 q 1076 952 1018 975 q 1176 888 1133 929 q 1243 789 1218 846 q 1268 664 1268 732 q 1253 574 1268 617 q 1210 497 1238 532 q 1147 433 1183 461 q 1071 385 1111 406 q 1123 293 1097 339 q 1175 203 1149 247 q 1225 111 1200 157 q 1274 18 1250 65 l 1279 10 q 1274 0 1283 0 l 1100 0 q 1094 4 1096 0 l 1093 7 q 1024 131 1057 69 q 958 254 990 192 q 890 377 926 317 q 815 497 854 438 l 810 508 q 815 518 803 518 l 828 518 l 850 517 l 871 517 q 950 522 908 517 q 1026 542 992 526 q 1083 586 1060 557 q 1106 664 1106 615 q 1062 772 1106 733 q 951 810 1018 810 l 524 810 q 399 786 458 810 q 295 721 340 763 q 223 622 250 679 q 196 497 196 564 q 221 372 196 432 q 288 267 246 313 q 389 194 331 221 q 514 167 447 167 l 846 167 q 867 161 857 167 q 882 146 876 156 l 929 63 q 935 17 946 35 q 893 0 925 0 l 514 0 q 319 38 408 0 q 165 142 229 75 q 64 299 100 208 q 28 497 28 390 z "},"":{"ha":1374,"x_min":83,"x_max":1347,"o":"m 478 0 q 439 16 450 0 q 439 57 428 32 l 803 949 q 842 975 814 975 l 932 975 q 971 949 960 975 l 1336 57 q 1336 16 1347 32 q 1297 0 1325 0 l 1210 0 q 1187 8 1197 0 q 1171 26 1176 15 l 888 722 l 661 167 l 982 167 q 1021 140 1010 167 l 1054 57 q 1054 16 1065 32 q 1015 0 1043 0 l 478 0 m 83 933 q 94 964 83 953 q 125 975 106 975 l 636 975 q 675 960 664 975 q 675 918 686 944 l 643 836 q 627 817 638 825 q 604 810 617 810 l 246 810 l 246 629 l 499 629 q 538 614 526 629 q 538 572 549 599 l 506 489 q 490 470 500 478 q 467 463 479 463 l 246 463 l 246 167 l 317 167 q 355 151 344 167 q 356 110 365 136 l 322 26 q 306 8 317 15 q 283 0 296 0 l 125 0 q 94 11 106 0 q 83 42 83 22 l 83 933 z "},"":{"ha":1088,"x_min":83,"x_max":1060,"o":"m 83 933 q 94 964 83 953 q 125 975 106 975 l 726 975 q 851 952 793 975 q 951 888 908 929 q 1018 789 993 846 q 1043 664 1043 732 q 1028 574 1043 617 q 986 494 1013 531 q 924 428 960 457 q 847 378 888 399 q 897 288 872 333 q 949 199 922 243 q 1000 109 975 154 q 1050 19 1025 64 l 1056 10 q 1049 0 1060 0 l 876 0 q 871 4 871 0 l 868 7 q 798 130 832 69 q 729 253 764 190 q 660 376 694 315 q 589 499 625 436 l 583 508 q 589 517 578 517 l 750 517 q 797 533 774 518 q 838 570 819 549 q 869 617 857 592 q 881 664 881 642 q 837 772 881 733 q 726 810 793 810 l 246 810 l 246 629 l 397 629 q 404 626 401 629 l 406 622 q 424 587 415 604 q 444 551 433 569 l 489 472 q 483 463 493 463 l 246 463 l 246 167 l 639 167 q 675 146 661 167 l 722 63 q 728 17 738 35 q 686 0 718 0 l 125 0 q 94 11 106 0 q 83 42 83 22 l 83 933 l 83 933 z "},"":{"ha":1221,"x_min":83,"x_max":1207,"o":"m 83 933 q 94 964 83 953 q 125 975 106 975 l 1165 975 q 1196 964 1185 975 q 1207 933 1207 953 l 1207 851 q 1196 821 1207 832 q 1165 810 1185 810 l 936 810 l 936 42 q 925 11 936 22 q 894 0 914 0 l 814 0 q 783 11 794 0 q 772 42 772 22 l 772 810 l 246 810 l 246 629 l 589 629 q 619 618 608 629 q 631 588 631 607 l 631 504 q 619 474 631 485 q 589 463 608 463 l 246 463 l 246 167 l 589 167 q 619 156 608 167 q 631 125 631 144 l 631 42 q 619 11 631 22 q 589 0 608 0 l 125 0 q 94 11 106 0 q 83 42 83 22 l 83 933 z "},"":{"ha":1410,"x_min":83,"x_max":1383,"o":"m 83 933 q 94 964 83 953 q 125 975 106 975 l 1021 975 q 1060 960 1049 975 q 1060 918 1071 944 l 1028 835 q 1012 816 1022 824 q 989 808 1001 808 l 697 808 l 924 253 l 1210 949 q 1249 975 1221 975 l 1333 975 q 1372 959 1361 975 q 1372 918 1383 943 l 1007 26 q 968 0 996 0 l 879 0 q 840 26 851 0 l 519 810 l 246 810 l 246 629 l 413 629 q 451 603 440 629 l 485 519 q 485 478 496 494 q 446 463 474 463 l 246 463 l 246 167 l 601 167 q 640 140 629 167 l 674 57 q 674 16 685 32 q 635 0 663 0 l 125 0 q 94 11 106 0 q 83 42 83 22 l 83 933 z "},"":{"ha":1817,"x_min":83,"x_max":1790,"o":"m 83 933 q 94 964 83 953 q 125 975 106 975 l 599 975 q 638 949 626 975 l 924 253 l 1039 533 l 882 918 q 882 960 871 944 q 921 975 893 975 l 1333 975 q 1372 960 1361 975 q 1372 918 1383 944 l 1217 535 l 1331 254 l 1615 949 q 1654 975 1626 975 l 1740 975 q 1779 960 1768 975 q 1779 918 1790 944 l 1415 26 q 1399 8 1410 15 q 1376 0 1389 0 l 1286 0 q 1263 8 1274 0 q 1247 26 1253 15 l 1128 319 l 1007 26 q 968 0 996 0 l 879 0 q 840 26 851 0 l 519 810 l 246 810 l 246 629 l 425 629 q 464 603 453 629 l 497 519 q 497 478 507 494 q 458 463 486 463 l 246 463 l 246 167 l 610 167 q 649 140 638 167 l 682 57 q 682 16 693 32 q 643 0 671 0 l 125 0 q 94 11 106 0 q 83 42 83 22 l 83 933 m 1106 810 l 1128 751 l 1151 810 l 1106 810 z "},"":{"ha":1122,"x_min":83,"x_max":1110,"o":"m 83 933 q 94 964 83 953 q 125 975 106 975 l 1068 975 q 1099 964 1088 975 q 1110 933 1110 953 l 1110 842 q 1101 817 1110 826 l 626 167 l 1068 167 q 1099 156 1088 167 q 1110 125 1110 144 l 1110 42 q 1099 11 1110 22 q 1068 0 1088 0 l 447 0 q 417 11 428 0 q 406 42 406 22 l 406 136 q 414 161 406 150 l 888 810 l 246 810 l 246 629 l 553 629 q 598 611 589 629 q 588 564 607 593 l 532 481 q 497 463 521 463 l 246 463 l 246 167 l 285 167 q 303 135 324 167 l 225 18 q 190 0 214 0 l 125 0 q 94 11 106 0 q 83 42 83 22 l 83 933 z "},"":{"ha":1263,"x_min":83,"x_max":1236,"o":"m 367 0 q 328 16 339 0 q 328 57 317 32 l 693 949 q 732 975 704 975 l 822 975 q 861 949 850 975 l 1225 57 q 1225 16 1236 32 q 1186 0 1214 0 l 1100 0 q 1077 8 1088 0 q 1061 26 1067 15 l 778 722 l 551 167 l 858 167 q 896 142 885 167 l 933 58 q 934 16 944 32 q 896 0 924 0 l 367 0 m 83 933 q 94 964 83 953 q 125 975 106 975 l 535 975 q 573 960 563 975 q 572 918 583 944 l 540 836 q 524 817 535 825 q 501 810 514 810 l 246 810 l 246 629 l 394 629 q 433 614 422 629 q 433 572 443 599 l 400 489 q 384 470 394 478 q 361 463 374 463 l 246 463 l 246 42 q 235 11 246 22 q 204 0 224 0 l 125 0 q 94 11 106 0 q 83 42 83 22 l 83 933 z "},"":{"ha":1088,"x_min":83,"x_max":1060,"o":"m 83 933 q 94 964 83 953 q 125 975 106 975 l 726 975 q 851 951 793 975 q 951 884 908 926 q 1018 783 993 842 q 1043 658 1043 725 q 1028 569 1043 611 q 986 492 1013 528 q 924 428 960 457 q 849 379 889 400 q 899 288 874 333 q 950 199 924 243 l 1050 19 l 1056 10 q 1049 0 1060 0 l 876 0 q 871 4 871 0 l 868 7 l 731 253 q 661 376 696 315 q 590 499 626 436 l 585 508 q 590 517 579 517 l 751 517 q 800 534 776 519 q 840 568 824 549 q 869 610 857 585 q 881 658 881 635 q 838 769 881 728 q 726 810 794 810 l 246 810 l 246 629 l 386 629 q 422 606 410 629 l 464 522 q 468 478 478 494 q 428 463 458 463 l 246 463 l 246 42 q 235 11 246 22 q 204 0 224 0 l 125 0 q 94 11 106 0 q 83 42 83 22 l 83 933 l 83 933 z "},"":{"ha":1176,"x_min":83,"x_max":1163,"o":"m 83 933 q 94 964 83 953 q 125 975 106 975 l 1121 975 q 1151 964 1140 975 q 1163 933 1163 953 l 1163 851 q 1151 821 1163 832 q 1121 810 1140 810 l 892 810 l 892 42 q 881 11 892 22 q 850 0 869 0 l 769 0 q 739 11 750 0 q 728 42 728 22 l 728 810 l 246 810 l 246 629 l 589 629 q 619 618 608 629 q 631 588 631 607 l 631 504 q 619 474 631 485 q 589 463 608 463 l 246 463 l 246 42 q 235 11 246 22 q 204 0 224 0 l 125 0 q 94 11 106 0 q 83 42 83 22 l 83 933 z "},"":{"ha":1122,"x_min":83,"x_max":1110,"o":"m 83 933 q 94 964 83 953 q 125 975 106 975 l 1068 975 q 1099 964 1088 975 q 1110 933 1110 953 l 1110 842 q 1101 817 1110 826 l 626 167 l 1068 167 q 1099 156 1088 167 q 1110 125 1110 144 l 1110 42 q 1099 11 1110 22 q 1068 0 1088 0 l 447 0 q 417 11 428 0 q 406 42 406 22 l 406 136 q 414 161 406 150 l 888 810 l 246 810 l 246 629 l 544 629 q 590 611 581 629 q 578 563 600 593 l 517 479 q 483 463 504 463 l 246 463 l 246 42 q 235 11 246 22 q 204 0 224 0 l 125 0 q 94 11 106 0 q 83 42 83 22 l 83 933 l 83 933 z "},"":{"ha":1808,"x_min":29,"x_max":1778,"o":"m 79 1 q 40 17 51 1 q 40 58 29 33 l 404 947 q 443 974 415 974 l 532 974 q 571 947 560 974 l 690 654 l 810 946 q 849 972 821 972 l 939 972 q 978 946 967 972 l 1296 167 l 1508 167 q 1543 176 1526 167 q 1572 201 1560 186 q 1594 233 1585 215 q 1608 265 1604 250 q 1615 313 1615 293 q 1600 392 1615 363 q 1558 438 1585 422 q 1492 459 1531 454 q 1410 464 1454 464 l 1356 464 l 1300 461 l 1296 461 q 1289 465 1290 461 l 1225 617 q 1232 626 1219 626 l 1242 626 l 1364 621 q 1431 625 1397 621 q 1510 651 1476 628 q 1544 726 1544 675 q 1534 760 1544 746 q 1507 785 1524 775 q 1472 801 1490 796 q 1436 807 1453 807 l 1172 807 q 1133 832 1144 807 l 1100 914 q 1099 956 1089 940 q 1138 972 1110 972 l 1436 972 q 1536 957 1488 972 q 1623 911 1585 942 q 1684 837 1661 881 q 1707 736 1707 793 q 1693 653 1707 692 q 1653 579 1679 615 q 1729 494 1701 543 q 1771 386 1757 446 q 1776 349 1774 367 q 1778 313 1778 331 q 1758 201 1778 257 q 1702 101 1738 146 q 1617 28 1667 56 q 1508 0 1568 0 l 1215 0 q 1192 8 1203 0 q 1176 26 1182 15 l 893 721 l 779 440 l 935 58 q 935 17 946 33 q 896 1 924 1 l 485 1 q 446 17 457 1 q 446 58 435 33 l 603 440 l 488 721 l 204 28 q 188 9 199 17 q 165 1 178 1 l 79 1 m 715 167 l 692 224 l 668 167 l 715 167 z "},"":{"ha":2038,"x_min":28,"x_max":1953,"o":"m 78 1 q 39 17 50 1 q 39 58 28 33 l 404 947 q 443 974 415 974 l 532 974 q 571 947 560 974 l 690 656 l 810 947 q 849 974 821 974 l 1911 974 q 1942 963 1931 974 q 1953 932 1953 951 l 1953 849 q 1942 818 1953 829 q 1911 807 1931 807 l 1035 807 l 1108 626 l 1910 626 q 1940 615 1929 626 q 1951 585 1951 604 l 1951 503 q 1940 472 1951 483 q 1910 461 1929 461 l 1176 461 l 1296 165 l 1911 165 q 1942 154 1931 165 q 1953 124 1953 143 l 1953 42 q 1942 11 1953 22 q 1911 0 1931 0 l 1217 0 q 1178 26 1189 0 l 893 721 l 779 439 l 935 57 q 935 16 946 32 q 896 0 924 0 l 483 0 q 444 16 456 0 q 444 57 433 32 l 601 440 l 486 722 l 203 28 q 187 9 197 17 q 164 1 176 1 l 78 1 m 668 167 l 714 167 l 690 224 l 668 167 z "},"":{"ha":2147,"x_min":26,"x_max":2119,"o":"m 76 1 q 38 17 49 1 q 38 58 26 33 l 403 950 q 442 976 414 976 l 531 976 q 569 951 558 976 l 690 658 l 810 950 q 849 976 821 976 l 939 976 q 978 950 967 976 l 1297 167 l 1660 167 q 1778 193 1724 167 q 1874 265 1833 219 q 1936 368 1914 310 q 1958 489 1958 426 q 1936 609 1958 551 q 1874 711 1914 667 q 1780 783 1835 756 q 1660 810 1725 810 l 1190 810 q 1167 817 1178 810 q 1151 836 1157 825 l 1118 919 q 1118 961 1107 946 q 1157 976 1129 976 l 1660 976 q 1842 937 1758 976 q 1988 830 1926 897 q 2085 674 2050 763 q 2119 489 2119 586 q 2085 305 2119 393 q 1990 149 2051 217 q 1844 42 1928 82 q 1660 1 1760 1 l 1217 1 q 1178 28 1189 1 l 893 722 l 779 442 l 940 60 q 940 17 951 33 q 901 1 929 1 l 483 1 q 444 17 456 1 q 444 58 433 33 l 601 443 l 486 724 l 201 28 q 185 9 196 17 q 163 1 175 1 l 76 1 m 667 168 l 714 168 l 690 226 l 667 168 z "},"":{"ha":1758,"x_min":26,"x_max":1732,"o":"m 76 1 q 38 17 49 1 q 38 58 26 33 l 403 950 q 442 976 414 976 l 531 976 q 569 951 558 976 l 690 657 l 810 949 q 849 975 821 975 l 939 975 q 978 949 967 975 l 1267 242 l 1499 808 l 1175 808 q 1152 816 1163 808 q 1136 835 1142 824 l 1103 918 q 1103 960 1092 944 q 1142 975 1114 975 l 1682 975 q 1721 959 1710 975 q 1721 918 1732 943 l 1356 26 q 1317 0 1344 0 l 1217 0 q 1194 8 1204 0 q 1178 26 1183 15 l 893 722 l 779 442 l 933 58 q 934 17 944 33 q 896 1 924 1 l 483 1 q 444 17 456 1 q 444 58 433 33 l 601 442 l 486 722 l 201 28 q 163 1 190 1 l 76 1 m 667 167 l 714 167 l 690 225 l 667 167 z "},"":{"ha":2156,"x_min":26,"x_max":2129,"o":"m 76 1 q 38 17 49 1 q 38 58 26 33 l 403 950 q 442 976 414 976 l 531 976 q 569 951 558 976 l 690 657 l 810 949 q 849 975 821 975 l 938 975 q 976 949 965 975 l 1261 254 l 1378 535 l 1219 918 q 1219 959 1208 943 q 1258 975 1231 975 l 1672 975 q 1711 959 1700 975 q 1711 918 1722 943 l 1554 535 l 1669 254 l 1954 950 q 1993 976 1965 976 l 2079 976 q 2118 961 2107 976 q 2118 919 2129 946 l 1754 28 q 1738 9 1749 17 q 1715 1 1728 1 l 1625 1 q 1586 28 1597 1 l 1465 319 l 1339 10 q 1338 7 1338 8 q 1336 4 1338 6 q 1329 0 1333 0 l 1217 0 q 1194 8 1204 0 q 1178 26 1183 15 l 893 722 l 779 442 l 933 58 q 934 17 944 33 q 896 1 924 1 l 483 1 q 444 17 456 1 q 444 58 433 33 l 601 442 l 486 722 l 201 28 q 163 1 190 1 l 76 1 m 1442 810 l 1467 751 l 1490 810 l 1442 810 m 667 167 l 714 167 l 690 225 l 667 167 z "},"":{"ha":1426,"x_min":83,"x_max":1399,"o":"m 83 933 q 94 964 83 953 q 125 975 106 975 l 222 975 q 243 969 233 975 q 258 954 253 964 l 625 313 l 625 810 l 467 810 q 436 821 447 810 q 425 851 425 832 l 425 933 q 436 964 425 953 q 467 975 447 975 l 744 975 q 775 964 764 975 q 786 933 786 953 l 786 167 l 939 167 q 1058 193 1003 167 q 1152 265 1113 219 q 1214 367 1192 310 q 1236 488 1236 425 q 1157 712 1236 631 q 938 807 1078 793 l 932 808 q 925 815 925 808 l 925 968 q 932 975 925 975 l 939 975 q 1122 935 1038 975 q 1267 828 1206 896 q 1364 673 1329 761 q 1399 488 1399 585 q 1364 304 1399 392 q 1268 149 1329 217 q 1123 40 1207 81 q 939 0 1039 0 l 649 0 q 611 21 625 0 l 246 671 l 246 42 q 235 11 246 22 q 204 0 224 0 l 125 0 q 94 11 106 0 q 83 42 83 22 l 83 933 l 83 933 z "},"":{"ha":1331,"x_min":83,"x_max":1317,"o":"m 125 0 q 94 11 106 0 q 83 42 83 22 l 83 933 q 94 964 83 953 q 125 975 106 975 l 222 975 q 243 969 233 975 q 258 954 253 964 l 625 313 l 625 810 l 464 810 q 433 821 444 810 q 422 851 422 832 l 422 933 q 433 964 422 953 q 464 975 444 975 l 1275 975 q 1306 964 1294 975 q 1317 933 1317 953 l 1317 851 q 1306 821 1317 832 q 1275 810 1294 810 l 1046 810 l 1046 42 q 1035 11 1046 22 q 1004 0 1024 0 l 924 0 q 893 11 904 0 q 882 42 882 22 l 882 810 l 786 810 l 786 42 q 775 11 786 22 q 744 0 764 0 l 649 0 q 611 21 625 0 l 246 671 l 246 42 q 235 11 246 22 q 204 0 224 0 l 125 0 l 125 0 z "},"":{"ha":1185,"x_min":42,"x_max":1171,"o":"m 42 690 q 63 797 42 746 q 119 888 83 849 q 205 951 156 928 q 313 975 254 975 l 1129 975 q 1160 964 1149 975 q 1171 933 1171 953 l 1171 851 q 1160 821 1171 832 q 1129 810 1149 810 l 900 810 l 900 42 q 889 11 900 22 q 858 0 878 0 l 778 0 q 747 11 758 0 q 736 42 736 22 l 736 810 l 313 810 q 251 788 279 810 q 213 735 222 767 q 204 690 204 711 q 224 617 204 649 q 288 579 243 586 q 314 575 300 576 q 343 572 328 574 l 385 571 l 426 571 q 533 548 483 571 q 619 485 582 525 q 676 394 656 446 q 697 286 697 343 q 677 178 697 229 q 620 87 657 126 q 534 24 583 47 q 426 0 485 0 l 111 0 q 81 11 92 0 q 69 42 69 22 l 69 125 q 81 156 69 144 q 111 167 92 167 l 426 167 q 469 177 449 167 q 503 204 489 188 q 526 242 518 221 q 535 286 535 264 q 510 367 535 342 q 432 399 486 392 l 397 401 l 360 403 q 320 406 340 404 q 279 410 300 407 q 183 442 226 418 q 108 503 139 467 q 59 588 76 540 q 42 690 42 636 z "},"":{"ha":1275,"x_min":14,"x_max":1247,"o":"m 14 933 q 25 964 14 953 q 56 975 36 975 l 904 975 q 1006 961 956 975 q 1097 915 1056 947 q 1175 739 1175 846 q 1125 583 1175 654 q 1219 465 1190 536 q 1247 314 1247 393 q 1228 201 1247 257 q 1174 100 1210 144 q 1090 28 1139 56 q 978 0 1040 0 l 585 0 q 554 11 565 0 q 543 42 543 22 l 543 810 l 447 810 l 447 42 q 436 11 447 22 q 406 0 425 0 l 326 0 q 296 11 307 0 q 285 42 285 22 l 285 810 l 56 810 q 25 821 36 810 q 14 851 14 832 l 14 933 m 707 465 l 707 167 l 978 167 q 1023 181 1003 167 q 1057 216 1043 194 q 1078 264 1071 238 q 1085 314 1085 290 q 1076 363 1085 336 q 1053 412 1068 389 q 1019 450 1039 435 q 978 465 1000 465 l 707 465 m 707 631 l 904 631 q 983 657 953 631 q 1013 728 1013 683 q 979 788 1013 765 q 904 810 946 810 l 707 810 l 707 631 z "},"":{"ha":1356,"x_min":14,"x_max":1328,"o":"m 14 933 q 25 964 14 953 q 56 975 36 975 l 869 975 q 1052 935 968 975 q 1197 828 1136 896 q 1293 673 1258 761 q 1328 488 1328 585 q 1294 304 1328 392 q 1199 149 1260 217 q 1053 40 1138 81 q 869 0 969 0 l 594 0 q 564 11 575 0 q 553 42 553 22 l 553 810 l 447 810 l 447 42 q 436 11 447 22 q 406 0 425 0 l 326 0 q 296 11 307 0 q 285 42 285 22 l 285 810 l 56 810 q 25 821 36 810 q 14 851 14 832 l 14 933 m 715 810 l 715 167 l 869 167 q 991 194 936 167 q 1084 267 1046 222 q 1144 370 1122 313 q 1165 488 1165 428 q 1144 605 1165 547 q 1083 708 1122 663 q 990 782 1044 754 q 869 810 936 810 l 715 810 z "},"":{"ha":983,"x_min":14,"x_max":969,"o":"m 14 933 q 25 964 14 953 q 56 975 36 975 l 928 975 q 958 964 947 975 q 969 933 969 953 l 969 851 q 958 821 969 832 q 928 810 947 810 l 700 810 l 700 42 q 689 11 700 22 q 658 0 678 0 l 578 0 q 547 11 558 0 q 536 42 536 22 l 536 810 l 447 810 l 447 42 q 436 11 447 22 q 406 0 425 0 l 326 0 q 296 11 307 0 q 285 42 285 22 l 285 810 l 56 810 q 25 821 36 810 q 14 851 14 832 l 14 933 l 14 933 z "},"":{"ha":1181,"x_min":14,"x_max":1167,"o":"m 14 933 q 25 964 14 953 q 56 975 36 975 l 1125 975 q 1156 964 1144 975 q 1167 933 1167 953 l 1167 842 q 1158 817 1167 826 l 685 167 l 1125 167 q 1156 156 1144 167 q 1167 125 1167 144 l 1167 42 q 1156 11 1167 22 q 1125 0 1144 0 l 506 0 q 475 11 486 0 q 464 42 464 22 l 464 136 q 472 161 464 150 l 946 810 l 447 810 l 447 42 q 436 11 447 22 q 406 0 425 0 l 326 0 q 296 11 307 0 q 285 42 285 22 l 285 810 l 56 810 q 25 821 36 810 q 14 851 14 832 l 14 933 l 14 933 z "},"":{"ha":1368,"x_min":83,"x_max":1340,"o":"m 83 933 q 94 964 83 953 q 125 975 106 975 l 204 975 q 235 964 224 975 q 246 933 246 953 l 246 372 q 260 295 246 332 q 299 230 274 258 q 360 184 325 201 q 436 167 394 167 q 513 183 478 167 q 572 228 547 200 q 610 294 596 257 q 624 372 624 332 l 624 933 q 635 964 624 953 q 665 975 646 975 l 1007 975 q 1128 953 1071 975 q 1230 893 1186 932 q 1299 799 1274 854 q 1324 675 1324 743 q 1309 583 1324 628 q 1269 498 1294 538 q 1208 426 1243 458 q 1131 375 1172 394 q 1183 287 1157 331 q 1232 199 1208 243 q 1281 109 1256 154 q 1331 19 1306 64 l 1336 10 q 1329 0 1340 0 l 1156 0 q 1150 4 1150 0 l 1147 7 q 1077 129 1111 69 q 1011 251 1043 189 q 944 372 978 313 q 874 494 910 432 l 868 504 q 874 514 863 514 l 886 514 l 947 513 l 1032 513 q 1081 535 1058 517 q 1122 575 1101 550 q 1149 622 1139 599 q 1160 675 1160 646 q 1119 776 1160 740 q 1007 810 1078 810 l 786 810 l 786 372 q 760 232 786 299 q 688 113 735 165 q 577 31 642 61 q 436 0 513 0 q 297 31 361 0 q 185 113 232 61 q 110 231 138 164 q 83 372 83 299 l 83 933 z "},"":{"ha":1368,"x_min":26,"x_max":1340,"o":"m 38 918 q 38 959 26 943 q 76 975 49 975 l 186 975 q 192 971 189 975 l 193 967 q 343 612 271 789 q 488 254 415 435 q 544 393 515 325 q 603 531 574 461 q 658 669 631 600 q 714 808 686 738 l 431 808 q 393 835 403 808 l 360 918 q 359 960 349 944 q 397 975 369 975 l 997 975 q 1100 960 1051 975 q 1186 914 1149 944 q 1246 838 1224 883 q 1268 735 1268 793 q 1257 654 1268 690 q 1218 582 1246 618 q 1313 466 1286 538 q 1340 317 1340 394 q 1322 201 1340 258 q 1270 99 1304 144 q 1185 27 1236 54 q 1069 0 1135 0 l 735 0 q 697 15 707 0 q 696 57 686 31 l 729 139 q 767 165 739 165 l 1069 165 q 1117 181 1096 165 q 1151 217 1138 196 q 1178 317 1178 265 q 1165 392 1178 363 q 1128 438 1150 421 q 1058 461 1094 457 q 985 465 1022 465 l 929 465 l 874 463 l 864 463 q 858 472 853 463 l 915 618 q 932 629 919 629 l 944 629 q 1001 631 972 629 q 1053 642 1029 632 q 1091 672 1076 651 q 1106 728 1106 692 q 1096 765 1106 750 q 1071 790 1086 781 q 1036 804 1056 800 q 997 808 1017 808 l 890 808 l 571 26 q 555 8 565 15 q 532 0 544 0 l 442 0 q 403 26 414 0 l 38 918 l 38 918 z "},"":{"ha":1453,"x_min":26,"x_max":1425,"o":"m 38 918 q 38 959 26 943 q 76 975 49 975 l 163 975 q 201 949 190 975 l 486 254 q 543 393 514 325 q 601 531 572 461 q 658 669 631 600 q 714 808 686 738 l 401 808 q 364 833 375 808 l 326 917 q 324 959 314 943 q 364 975 335 975 l 964 975 q 1147 935 1063 975 q 1292 828 1231 896 q 1390 673 1354 761 q 1425 488 1425 585 q 1390 303 1425 392 q 1294 148 1356 215 q 1149 40 1233 81 q 964 0 1064 0 l 771 0 q 733 15 743 0 q 732 56 722 31 l 761 138 q 800 165 771 165 l 964 165 q 1083 192 1028 165 q 1177 264 1138 219 q 1239 367 1217 308 q 1261 488 1261 425 q 1239 608 1261 550 q 1177 710 1217 665 q 1083 781 1138 754 q 964 808 1029 808 l 890 808 q 728 408 808 606 q 646 209 688 308 q 564 8 604 110 l 563 4 q 556 0 560 0 l 442 0 q 403 26 414 0 l 38 918 l 38 918 z "},"":{"ha":1775,"x_min":26,"x_max":1747,"o":"m 38 917 q 38 958 26 942 q 76 974 49 974 l 163 974 q 201 947 190 974 l 486 253 l 601 533 l 444 918 q 444 960 433 944 q 483 975 456 975 l 896 975 q 935 960 924 975 q 935 918 946 944 l 779 535 l 893 254 l 1178 949 q 1217 975 1189 975 l 1404 975 q 1508 960 1458 975 q 1594 914 1557 944 q 1653 838 1631 883 q 1675 733 1675 793 q 1625 582 1675 650 q 1719 463 1690 535 q 1747 314 1747 392 q 1727 202 1747 258 q 1672 101 1707 146 q 1586 28 1636 57 q 1476 0 1536 0 l 1151 0 q 1113 15 1124 0 q 1111 56 1103 31 l 1142 139 q 1181 167 1151 167 l 1476 167 q 1511 176 1494 167 q 1540 201 1528 186 q 1563 233 1553 215 q 1576 267 1572 251 q 1583 314 1583 294 q 1571 392 1583 363 q 1535 439 1558 422 q 1476 461 1511 456 q 1399 467 1442 467 l 1279 463 l 1269 463 q 1263 472 1260 463 l 1314 614 q 1335 628 1321 628 l 1350 628 q 1417 632 1385 628 q 1465 644 1440 635 q 1501 676 1489 654 q 1513 733 1513 699 q 1491 781 1513 764 q 1443 806 1469 797 q 1404 810 1424 810 l 1297 810 l 978 26 q 962 8 972 15 q 939 0 951 0 l 849 0 q 826 8 836 0 q 810 26 815 15 l 690 319 l 569 26 q 531 0 558 0 l 442 0 q 403 26 414 0 l 38 917 m 690 751 l 714 808 l 667 808 l 690 751 z "},"":{"ha":1860,"x_min":26,"x_max":1832,"o":"m 38 917 q 38 958 26 942 q 76 974 49 974 l 163 974 q 201 947 190 974 l 486 253 l 601 533 l 444 918 q 444 960 433 944 q 483 975 456 975 l 896 975 q 935 960 924 975 q 935 918 946 944 l 779 535 l 893 254 q 1038 612 965 435 q 1186 967 1111 789 l 1188 971 q 1193 975 1189 975 l 1371 975 q 1553 935 1469 975 q 1699 828 1638 896 q 1797 673 1761 761 q 1832 488 1832 585 q 1797 303 1832 392 q 1701 148 1763 215 q 1556 40 1640 81 q 1371 0 1471 0 l 1172 0 q 1134 15 1144 0 q 1133 57 1124 31 l 1167 139 q 1204 165 1176 165 l 1371 165 q 1490 192 1435 165 q 1585 263 1544 218 q 1647 367 1625 308 q 1669 488 1669 425 q 1647 608 1669 550 q 1585 710 1625 665 q 1491 782 1546 756 q 1371 808 1436 808 l 1297 808 l 978 26 q 962 8 972 15 q 939 0 951 0 l 849 0 q 826 8 836 0 q 810 26 815 15 l 690 319 l 569 26 q 531 0 558 0 l 442 0 q 403 26 414 0 l 38 917 m 690 751 l 714 808 l 667 808 l 690 751 z "},"":{"ha":2164,"x_min":26,"x_max":2138,"o":"m 38 917 q 38 958 26 942 q 76 974 49 974 l 163 974 q 201 947 190 974 l 486 253 l 601 533 l 444 918 q 444 960 433 944 q 483 975 456 975 l 896 975 q 935 960 924 975 q 935 918 946 944 l 779 535 l 893 254 l 1178 949 q 1217 975 1189 975 l 1317 975 q 1356 950 1344 975 l 1476 657 l 1594 947 q 1633 974 1606 974 l 1724 974 q 1763 947 1751 974 l 2126 56 q 2126 15 2138 31 q 2088 -1 2115 -1 l 2003 -1 q 1980 6 1990 -1 q 1964 25 1969 14 l 1679 721 l 1564 440 l 1719 57 q 1719 16 1731 32 q 1681 0 1708 0 l 1268 0 q 1229 16 1240 0 q 1229 58 1218 32 l 1388 440 l 1267 733 l 978 26 q 962 8 972 15 q 939 0 951 0 l 849 0 q 826 8 836 0 q 810 26 815 15 l 690 319 l 569 26 q 531 0 558 0 l 442 0 q 403 26 414 0 l 38 917 m 1451 165 l 1500 165 l 1476 224 l 1451 165 m 690 751 l 714 808 l 667 808 l 690 751 z "},"a":{"ha":972,"x_min":26,"x_max":946,"o":"m 76 0 q 38 16 49 0 q 38 57 26 32 l 403 949 q 442 975 414 975 l 531 975 q 569 949 558 975 l 935 57 q 935 16 946 32 q 896 0 924 0 l 810 0 q 787 8 797 0 q 771 26 776 15 l 486 722 l 260 167 l 624 167 q 663 140 651 167 l 696 57 q 696 16 707 32 q 657 0 685 0 l 76 0 l 76 0 z "},"b":{"ha":836,"x_min":96,"x_max":808,"o":"m 107 918 q 107 960 96 944 q 146 975 118 975 l 458 975 q 563 959 514 975 q 650 912 613 943 q 709 834 688 881 q 731 728 731 788 q 717 651 731 683 q 681 583 704 619 q 778 467 747 539 q 808 318 808 396 q 790 201 808 258 q 735 99 771 144 q 649 27 700 54 q 532 0 597 0 l 140 0 q 110 11 121 0 q 99 42 99 22 l 99 589 q 110 619 99 608 q 140 631 121 631 l 224 631 l 107 918 m 532 167 q 583 180 563 167 q 617 215 604 193 q 635 264 629 238 q 640 318 640 290 q 632 366 640 340 q 609 414 624 392 q 574 451 594 436 q 532 465 554 465 l 261 465 l 261 167 l 532 167 m 328 810 q 364 720 346 765 q 401 631 382 675 l 458 631 q 537 657 507 631 q 567 728 567 683 q 537 792 567 774 q 458 810 507 810 l 328 810 z "},"c":{"ha":1000,"x_min":28,"x_max":972,"o":"m 28 488 q 63 675 28 585 q 162 835 99 765 q 312 947 225 906 q 500 989 399 989 l 514 989 q 526 976 526 989 l 526 835 q 514 821 526 821 l 500 821 q 376 793 433 821 q 278 719 319 765 q 213 613 236 674 q 190 488 190 553 q 213 363 190 422 q 277 256 236 303 q 375 182 318 210 q 500 154 432 154 q 624 182 567 154 q 722 256 681 210 q 787 362 764 301 q 810 488 810 422 l 810 500 q 822 513 810 513 l 960 513 q 972 500 972 513 l 972 488 q 937 298 972 389 q 839 138 901 207 q 690 27 776 68 q 500 -14 603 -14 q 314 28 400 -14 q 164 139 228 69 q 64 299 100 208 q 28 488 28 389 z "},"d":{"ha":900,"x_min":96,"x_max":872,"o":"m 107 918 q 107 959 96 943 q 146 975 118 975 l 413 975 q 595 935 511 975 q 741 828 679 896 q 838 673 803 761 q 872 488 872 585 q 838 303 872 392 q 742 148 804 215 q 597 40 681 81 q 413 0 513 0 l 138 0 q 107 11 118 0 q 96 42 96 22 l 96 496 q 119 593 96 593 q 176 513 142 593 l 256 325 q 258 308 258 314 l 258 167 l 413 167 q 531 193 476 167 q 626 265 586 219 q 688 367 665 310 q 710 488 710 425 q 688 608 710 550 q 626 710 665 665 q 532 783 586 756 q 413 810 478 810 l 328 810 l 533 310 q 534 277 540 292 q 508 256 528 263 l 435 229 q 403 229 418 222 q 382 251 389 236 l 107 918 l 107 918 z "},"e":{"ha":781,"x_min":83,"x_max":739,"o":"m 83 933 q 94 964 83 953 q 125 975 106 975 l 697 975 q 728 964 717 975 q 739 933 739 953 l 739 851 q 728 821 739 832 q 697 810 717 810 l 246 810 l 246 629 l 589 629 q 619 618 608 629 q 631 588 631 607 l 631 504 q 619 474 631 485 q 589 463 608 463 l 246 463 l 246 167 l 697 167 q 728 156 717 167 q 739 125 739 144 l 739 42 q 728 11 739 22 q 697 0 717 0 l 125 0 q 94 11 106 0 q 83 42 83 22 l 83 933 l 83 933 z "},"f":{"ha":781,"x_min":83,"x_max":739,"o":"m 83 933 q 94 964 83 953 q 125 975 106 975 l 697 975 q 728 964 717 975 q 739 933 739 953 l 739 851 q 728 821 739 832 q 697 810 717 810 l 246 810 l 246 629 l 589 629 q 619 618 608 629 q 631 588 631 607 l 631 504 q 619 474 631 485 q 589 463 608 463 l 246 463 l 246 42 q 235 11 246 22 q 204 0 224 0 l 125 0 q 94 11 106 0 q 83 42 83 22 l 83 933 z "},"g":{"ha":1017,"x_min":28,"x_max":972,"o":"m 28 488 q 63 675 28 585 q 162 835 99 765 q 312 947 225 906 q 500 989 399 989 l 514 989 q 526 976 526 989 l 526 835 q 514 821 526 821 l 500 821 q 376 793 433 821 q 278 719 319 765 q 213 613 236 674 q 190 488 190 553 q 213 363 190 422 q 277 256 236 303 q 375 182 318 210 q 500 154 432 154 q 617 179 561 154 q 714 247 672 204 q 781 346 756 290 q 806 463 806 401 l 633 463 q 603 474 614 463 q 592 504 592 485 l 592 588 q 603 618 592 607 q 633 629 614 629 l 951 629 q 957 625 954 629 l 957 619 q 969 554 965 589 q 972 519 971 536 q 972 486 972 503 q 937 297 972 388 q 839 138 901 207 q 690 27 776 68 q 500 -14 603 -14 q 314 28 400 -14 q 164 139 228 69 q 64 299 100 208 q 28 488 28 389 z "},"h":{"ha":869,"x_min":83,"x_max":786,"o":"m 125 0 q 94 11 106 0 q 83 42 83 22 l 83 933 q 94 964 83 953 q 125 975 106 975 l 204 975 q 235 964 224 975 q 246 933 246 953 l 246 603 l 624 771 l 624 933 q 635 964 624 953 q 665 975 646 975 l 744 975 q 775 964 764 975 q 786 933 786 953 l 786 42 q 775 11 786 22 q 744 0 764 0 l 665 0 q 635 11 646 0 q 624 42 624 22 l 624 336 l 246 169 l 246 42 q 235 11 246 22 q 204 0 224 0 l 125 0 m 246 350 l 624 517 l 624 589 l 246 422 l 246 350 z "},"i":{"ha":329,"x_min":83,"x_max":246,"o":"m 83 933 q 94 964 83 953 q 125 975 106 975 l 204 975 q 235 964 224 975 q 246 933 246 953 l 246 42 q 235 11 246 22 q 204 0 224 0 l 125 0 q 94 11 106 0 q 83 42 83 22 l 83 933 z "},"j":{"ha":585,"x_min":14,"x_max":501,"o":"m 14 143 q 21 149 14 149 l 26 149 q 151 178 93 150 q 250 253 208 207 q 315 360 292 300 q 339 488 339 421 l 339 810 l 229 810 q 199 821 210 810 q 188 851 188 832 l 188 933 q 199 964 188 953 q 229 975 210 975 l 460 975 q 490 964 479 975 q 501 933 501 953 l 501 488 q 467 304 501 392 q 371 149 432 217 q 226 40 310 81 q 42 0 142 0 l 28 0 q 14 14 14 0 l 14 143 z "},"k":{"ha":819,"x_min":83,"x_max":786,"o":"m 83 933 q 94 964 83 953 q 125 975 106 975 l 204 975 q 235 964 224 975 q 246 933 246 953 l 246 343 l 603 954 q 639 975 617 975 l 733 975 q 776 958 765 975 q 769 913 786 940 l 521 488 l 769 63 q 776 17 786 35 q 733 0 765 0 l 639 0 q 603 21 617 0 l 426 326 l 247 21 q 232 6 242 11 q 211 0 222 0 l 125 0 q 94 11 106 0 q 83 42 83 22 l 83 933 z "},"l":{"ha":753,"x_min":83,"x_max":739,"o":"m 125 0 q 94 11 106 0 q 83 42 83 22 l 83 933 q 94 964 83 953 q 125 975 106 975 l 204 975 q 235 964 224 975 q 246 933 246 953 l 246 167 l 697 167 q 728 156 717 167 q 739 125 739 144 l 739 42 q 728 11 739 22 q 697 0 717 0 l 125 0 l 125 0 z "},"m":{"ha":1379,"x_min":26,"x_max":1353,"o":"m 76 1 q 38 17 49 1 q 38 58 26 33 l 403 949 q 442 975 414 975 l 531 975 q 569 950 558 975 l 690 657 l 810 949 q 849 975 821 975 l 939 975 q 978 949 967 975 l 1342 57 q 1342 16 1353 32 q 1303 0 1331 0 l 1217 0 q 1194 8 1204 0 q 1178 26 1183 15 l 893 722 l 779 440 l 935 57 q 935 16 946 32 q 896 0 924 0 l 483 0 q 444 16 456 0 q 444 57 433 32 l 601 442 l 486 722 l 201 28 q 163 1 190 1 l 76 1 m 667 167 l 714 167 l 690 225 l 667 167 z "},"n":{"ha":869,"x_min":83,"x_max":786,"o":"m 83 933 q 94 964 83 953 q 125 975 106 975 l 222 975 q 243 969 233 975 q 258 954 253 964 l 625 313 l 625 810 l 418 810 q 388 821 399 810 q 376 851 376 832 l 376 933 q 388 964 376 953 q 418 975 399 975 l 744 975 q 775 964 764 975 q 786 933 786 953 l 786 42 q 775 11 786 22 q 744 0 764 0 l 649 0 q 611 21 625 0 l 246 671 l 246 42 q 235 11 246 22 q 204 0 224 0 l 125 0 q 94 11 106 0 q 83 42 83 22 l 83 933 z "},"o":{"ha":1069,"x_min":28,"x_max":1042,"o":"m 535 -14 q 340 26 432 -14 q 179 133 249 65 q 69 292 110 200 q 28 488 28 383 q 68 683 28 592 q 177 842 108 774 q 338 949 246 910 q 535 989 431 989 q 730 950 638 989 q 892 843 822 911 q 1001 684 961 775 q 1042 488 1042 593 q 1001 293 1042 385 q 892 133 961 201 q 731 26 822 65 q 535 -14 639 -14 m 199 488 q 224 362 199 422 q 295 256 250 301 q 402 182 340 210 q 535 154 464 154 q 668 181 607 154 q 774 254 729 208 q 845 360 819 300 q 871 488 871 421 q 846 615 871 554 q 776 721 821 675 q 669 794 731 767 q 535 821 607 821 q 401 794 463 821 q 295 721 340 767 q 224 615 250 675 q 199 488 199 554 m 457 488 q 481 545 457 522 q 540 568 506 568 q 599 546 576 568 q 622 488 622 524 q 599 430 622 451 q 540 408 575 408 q 483 431 508 408 q 457 488 457 454 z "},"p":{"ha":836,"x_min":104,"x_max":808,"o":"m 124 911 q 115 958 106 940 q 160 975 125 975 l 493 975 q 617 952 560 975 q 717 888 674 929 q 784 789 760 846 q 808 664 808 732 q 785 540 808 597 q 719 439 761 482 q 619 371 676 396 q 493 346 561 346 l 267 346 l 267 42 q 256 11 267 22 q 225 0 244 0 l 146 0 q 115 11 126 0 q 104 42 104 22 l 104 471 q 115 501 104 490 q 146 513 126 513 l 376 513 l 124 911 m 558 528 q 623 583 600 549 q 646 664 646 618 q 603 769 646 728 q 493 810 561 810 l 375 810 l 558 528 z "},"q":{"ha":1031,"x_min":28,"x_max":1003,"o":"m 28 493 q 65 685 28 593 q 167 847 101 776 q 322 958 233 917 q 515 999 411 999 q 707 958 618 999 q 862 849 796 918 q 965 688 928 779 q 1003 493 1003 596 q 965 297 1003 389 q 854 129 926 204 l 882 99 q 881 90 885 94 l 801 6 q 771 -10 789 -10 q 740 6 756 -10 l 683 67 l 683 21 q 679 15 683 17 l 675 14 q 595 -6 635 1 q 514 -14 556 -14 q 324 28 413 -14 q 170 140 236 69 q 66 301 104 210 q 28 493 28 393 m 218 618 q 194 493 194 556 q 217 367 194 428 q 283 259 240 306 q 384 184 325 213 q 515 156 443 156 l 536 156 l 536 408 q 515 407 532 407 q 453 429 481 407 q 425 488 425 451 q 452 546 425 524 q 515 568 479 568 q 578 546 551 568 q 606 488 606 524 q 595 451 606 468 q 568 424 585 435 q 738 250 657 339 q 811 363 786 299 q 836 493 836 426 q 813 618 836 557 q 747 727 789 679 q 645 803 704 775 q 515 832 586 832 q 416 815 463 832 q 331 770 369 799 q 265 703 293 742 q 218 618 236 664 z "},"r":{"ha":853,"x_min":101,"x_max":824,"o":"m 118 913 q 113 958 103 940 q 154 975 122 975 l 489 975 q 613 951 556 975 q 713 884 669 926 q 780 783 756 842 q 804 658 804 725 q 753 485 804 558 q 611 372 701 411 q 710 194 660 282 q 813 19 760 107 l 819 10 q 814 0 824 0 l 658 0 q 621 21 635 0 l 439 346 l 264 346 l 264 42 q 253 11 264 22 q 222 0 242 0 l 143 0 q 113 11 124 0 q 101 42 101 22 l 101 471 q 113 501 101 490 q 143 513 124 513 l 344 513 l 118 913 m 365 810 q 447 664 406 735 q 531 518 489 593 q 613 569 583 531 q 642 658 642 607 q 601 766 642 722 q 489 810 560 810 l 365 810 z "},"s":{"ha":711,"x_min":28,"x_max":683,"o":"m 28 690 q 49 797 28 746 q 106 888 69 849 q 191 951 142 928 q 299 975 240 975 l 588 975 q 618 964 607 975 q 629 933 629 953 l 629 851 q 618 821 629 832 q 588 810 607 810 l 299 810 q 237 788 265 810 q 199 735 208 767 q 190 690 190 711 q 210 617 190 649 q 274 579 229 586 q 300 575 286 576 q 329 572 314 574 l 371 571 l 413 571 q 519 547 469 571 q 605 485 568 524 q 663 394 642 446 q 683 286 683 342 q 663 178 683 229 q 607 87 643 126 q 522 24 571 47 q 413 0 472 0 l 97 0 q 67 11 78 0 q 56 42 56 22 l 56 125 q 67 156 56 144 q 97 167 78 167 l 413 167 q 475 188 449 167 q 514 242 501 208 q 521 286 521 265 q 497 368 521 344 q 417 399 474 392 l 382 401 l 344 403 q 264 411 306 404 q 169 444 213 419 q 95 507 126 469 q 46 591 64 544 q 28 690 28 638 z "},"t":{"ha":731,"x_min":14,"x_max":717,"o":"m 14 933 q 25 964 14 953 q 56 975 36 975 l 675 975 q 706 964 694 975 q 717 933 717 953 l 717 851 q 706 821 717 832 q 675 810 694 810 l 447 810 l 447 42 q 436 11 447 22 q 406 0 425 0 l 326 0 q 296 11 307 0 q 285 42 285 22 l 285 810 l 56 810 q 25 821 36 810 q 14 851 14 832 l 14 933 l 14 933 z "},"u":{"ha":869,"x_min":83,"x_max":786,"o":"m 436 0 q 297 31 361 0 q 185 113 232 61 q 110 231 138 164 q 83 372 83 299 l 83 933 q 94 964 83 953 q 125 975 106 975 l 204 975 q 235 964 224 975 q 246 933 246 953 l 246 372 q 260 297 246 331 q 326 203 279 239 q 436 167 374 167 q 511 184 476 167 q 571 231 546 201 q 610 297 596 260 q 625 372 625 333 l 625 933 q 636 964 625 953 q 667 975 647 975 l 744 975 q 775 964 764 975 q 786 933 786 953 l 786 372 q 760 233 786 300 q 687 114 733 165 q 576 31 640 63 q 436 0 511 0 z "},"v":{"ha":972,"x_min":26,"x_max":946,"o":"m 38 918 q 38 959 26 943 q 76 975 49 975 l 163 975 q 201 949 190 975 l 488 253 l 713 808 l 350 808 q 327 816 338 808 q 311 835 317 824 l 278 918 q 278 960 267 944 q 317 975 289 975 l 896 975 q 935 960 924 975 q 935 918 946 944 l 571 26 q 555 8 565 15 q 532 0 544 0 l 442 0 q 403 26 414 0 l 38 918 l 38 918 z "},"w":{"ha":1379,"x_min":26,"x_max":1353,"o":"m 38 917 q 38 958 26 942 q 76 974 49 974 l 163 974 q 201 947 190 974 l 486 253 l 601 533 l 444 918 q 444 960 433 944 q 483 975 456 975 l 896 975 q 935 960 924 975 q 935 918 946 944 l 779 535 l 893 253 l 1178 949 q 1217 975 1189 975 l 1303 975 q 1342 960 1331 975 q 1342 918 1353 944 l 978 26 q 962 8 972 15 q 939 0 951 0 l 849 0 q 826 8 836 0 q 810 26 815 15 l 690 319 l 569 26 q 531 0 558 0 l 442 0 q 403 26 414 0 l 38 917 m 690 751 l 714 808 l 667 808 l 690 751 z "},"x":{"ha":924,"x_min":40,"x_max":885,"o":"m 61 910 q 49 957 40 939 q 94 975 58 975 l 194 975 q 228 957 217 975 l 461 629 l 590 810 l 501 810 q 467 828 478 810 l 411 910 q 401 957 392 939 q 446 975 410 975 l 829 975 q 875 957 865 975 q 863 910 885 939 l 563 488 l 863 65 q 875 18 885 36 q 829 0 865 0 l 731 0 q 696 18 707 0 l 461 347 l 333 167 l 424 167 q 457 150 444 167 l 517 67 q 528 18 538 36 q 483 0 519 0 l 94 0 q 49 18 58 0 q 61 65 40 36 l 361 488 l 61 910 l 61 910 z "},"y":{"ha":919,"x_min":38,"x_max":882,"o":"m 57 911 q 47 957 38 939 q 92 975 56 975 l 189 975 q 224 957 213 975 l 460 597 l 599 810 l 404 810 q 369 828 381 810 l 315 910 q 305 957 296 939 q 350 975 314 975 l 828 975 q 873 957 864 975 q 863 911 882 939 l 542 422 l 542 42 q 531 11 542 22 q 500 0 519 0 l 419 0 q 389 11 400 0 q 378 42 378 22 l 378 422 l 57 911 l 57 911 z "},"z":{"ha":731,"x_min":14,"x_max":717,"o":"m 14 933 q 25 964 14 953 q 56 975 36 975 l 675 975 q 706 964 694 975 q 717 933 717 953 l 717 842 q 708 817 717 826 l 235 167 l 675 167 q 706 156 694 167 q 717 125 717 144 l 717 42 q 706 11 717 22 q 675 0 694 0 l 56 0 q 25 11 36 0 q 14 42 14 22 l 14 136 q 22 161 14 150 l 496 810 l 56 810 q 25 821 36 810 q 14 851 14 832 l 14 933 l 14 933 z "},"!":{"ha":353,"x_min":83,"x_max":269,"o":"m 100 853 q 111 883 100 872 q 142 894 122 894 l 211 894 q 242 883 231 894 q 253 853 253 872 l 253 290 q 242 260 253 271 q 211 249 231 249 l 142 249 q 111 260 122 249 q 100 290 100 271 l 100 853 m 175 3 q 109 31 135 3 q 83 99 83 60 q 109 165 83 138 q 175 193 135 193 q 244 164 217 193 q 269 99 269 132 q 242 31 269 58 q 175 3 215 3 z "},"\"":{"ha":513,"x_min":83,"x_max":442,"o":"m 289 935 q 300 965 289 954 q 331 976 311 976 l 400 976 q 431 965 419 976 q 442 935 442 954 l 442 688 q 431 657 442 668 q 400 646 419 646 l 331 646 q 300 657 311 646 q 289 688 289 668 l 289 935 m 83 935 q 94 965 83 954 q 125 976 106 976 l 194 976 q 225 965 214 976 q 236 935 236 954 l 236 688 q 225 657 236 668 q 194 646 214 646 l 125 646 q 94 657 106 646 q 83 688 83 668 l 83 935 z "},"#":{"ha":943,"x_min":83,"x_max":860,"o":"m 83 325 q 94 356 83 344 q 125 367 106 367 l 228 367 l 265 525 l 192 525 q 161 536 172 525 q 150 567 150 547 l 150 640 q 161 671 150 660 q 192 682 172 682 l 303 682 l 344 860 q 358 883 347 875 q 385 892 369 892 l 456 892 q 491 878 479 892 q 497 840 503 864 l 460 682 l 594 682 l 638 860 q 651 883 640 875 q 678 892 663 892 l 749 892 q 784 878 772 892 q 789 840 796 864 l 751 682 l 818 682 q 849 671 838 682 q 860 640 860 660 l 860 567 q 849 536 860 547 q 818 525 838 525 l 715 525 l 678 367 l 753 367 q 783 356 772 367 q 794 325 794 344 l 794 251 q 783 221 794 232 q 753 210 772 210 l 642 210 l 600 32 q 558 0 590 0 l 488 0 q 453 14 464 0 q 447 51 442 28 l 485 210 l 349 210 l 307 32 q 265 0 297 0 l 196 0 q 160 14 172 0 q 156 51 149 28 l 192 210 l 125 210 q 94 221 106 210 q 83 251 83 232 l 83 325 m 521 367 l 558 525 l 422 525 l 386 367 l 521 367 z "},"$":{"ha":769,"x_min":83,"x_max":685,"o":"m 308 419 q 218 448 260 425 q 147 506 176 471 q 100 587 117 542 q 83 681 83 632 q 100 774 83 729 q 147 853 117 818 q 217 912 176 889 q 308 940 258 935 l 308 1076 q 319 1107 308 1096 q 350 1118 331 1118 l 418 1118 q 449 1107 438 1118 q 460 1076 460 1096 l 460 942 l 594 942 q 625 931 614 942 q 636 900 636 919 l 636 828 q 625 797 636 808 q 594 786 614 786 l 460 786 l 460 572 q 553 544 511 567 q 624 487 594 522 q 669 406 653 451 q 685 308 685 360 q 668 216 685 260 q 622 138 651 172 q 550 80 592 103 q 460 51 508 57 l 460 -83 q 449 -114 460 -103 q 418 -125 438 -125 l 350 -125 q 319 -114 331 -125 q 308 -83 308 -103 l 308 50 l 150 50 q 119 61 131 50 q 108 92 108 72 l 108 165 q 119 196 108 185 q 150 207 131 207 l 308 207 l 308 419 m 460 210 q 512 246 492 219 q 532 306 532 272 q 514 374 532 343 q 460 415 496 406 l 460 210 m 236 681 q 253 617 236 639 q 308 582 271 594 l 308 782 q 256 744 275 772 q 236 681 236 715 z "},"%":{"ha":1271,"x_min":83,"x_max":1188,"o":"m 83 631 q 102 730 83 682 q 154 813 121 778 q 233 870 188 849 q 333 892 279 892 q 433 871 389 892 q 514 810 476 850 q 581 631 581 731 q 562 532 581 579 q 510 448 543 485 q 433 390 478 411 q 333 368 388 368 q 234 390 282 368 q 153 451 186 411 q 101 535 119 488 q 83 631 83 582 m 760 83 q 708 167 726 119 q 690 263 690 214 q 710 361 690 314 q 763 444 729 408 q 842 502 796 481 q 940 524 888 524 q 1040 503 996 524 q 1121 442 1083 482 q 1188 263 1188 363 q 1169 164 1188 211 q 1117 80 1150 117 q 1040 22 1085 43 q 940 0 994 0 q 841 22 889 0 q 760 83 793 43 m 360 0 q 318 17 328 0 q 324 63 308 35 l 794 871 q 831 892 808 892 l 914 892 q 956 874 946 892 q 950 829 965 857 l 476 21 q 461 6 471 11 q 440 0 451 0 l 360 0 m 871 336 q 843 263 843 301 q 869 189 843 221 q 940 157 896 157 q 1010 189 983 157 q 1036 263 1036 221 q 1029 301 1036 282 q 1009 335 1022 321 q 978 359 996 350 q 940 368 961 368 q 871 336 899 368 m 263 704 q 236 631 236 672 q 243 591 236 610 q 263 557 250 572 q 294 533 276 542 q 333 524 313 524 q 372 533 354 524 q 401 557 389 542 q 421 591 414 572 q 428 631 428 610 q 402 703 428 671 q 333 736 376 736 q 263 704 290 736 z "},"&":{"ha":844,"x_min":83,"x_max":761,"o":"m 154 86 q 101 172 119 122 q 83 271 83 221 q 94 347 83 308 q 126 421 106 386 q 176 483 147 456 q 240 524 204 510 q 165 631 203 576 q 92 740 128 685 q 85 763 85 750 l 83 857 q 94 888 83 876 q 125 899 106 899 l 674 899 q 704 888 693 899 q 715 857 715 876 l 715 775 q 704 744 715 756 q 674 733 693 733 l 322 733 l 386 638 q 419 590 401 614 q 454 542 436 565 l 719 542 q 750 531 739 542 q 761 500 761 519 l 761 428 q 750 397 761 408 q 719 386 739 386 l 664 386 q 656 249 664 318 q 622 125 649 181 q 544 35 596 69 q 406 0 493 0 l 340 0 q 238 22 286 0 q 154 86 190 44 m 236 271 q 244 228 236 249 q 265 192 251 208 q 298 167 279 176 q 340 157 317 157 l 406 157 q 481 192 453 157 q 510 271 510 226 l 510 386 l 340 386 q 298 376 317 386 q 265 351 279 367 q 244 314 251 335 q 236 271 236 293 z "},"'":{"ha":319,"x_min":83,"x_max":236,"o":"m 83 931 q 94 961 83 950 q 125 972 106 972 l 194 972 q 225 961 214 972 q 236 931 236 950 l 236 683 q 225 653 236 664 q 194 642 214 642 l 125 642 q 94 653 106 642 q 83 683 83 664 l 83 931 z "},"(":{"ha":468,"x_min":83,"x_max":385,"o":"m 357 -75 q 249 -51 299 -75 q 162 12 199 -28 q 104 103 125 51 q 83 213 83 156 l 83 808 q 103 917 83 865 q 160 1010 124 969 q 247 1074 197 1050 q 357 1097 297 1097 l 371 1097 q 385 1083 385 1097 l 385 954 q 371 940 385 940 l 357 940 q 310 930 333 940 q 271 900 286 919 q 246 857 256 882 q 236 808 236 836 l 236 213 q 246 164 236 185 q 271 122 254 140 q 357 81 304 81 l 371 81 q 385 67 385 81 l 385 -61 q 371 -75 385 -75 l 357 -75 l 357 -75 z "},")":{"ha":468,"x_min":83,"x_max":385,"o":"m 83 50 q 97 64 83 64 l 111 64 q 160 75 138 64 q 197 105 182 86 q 222 148 213 124 q 231 197 231 172 l 231 793 q 222 842 231 818 q 181 901 206 878 q 111 925 156 925 l 97 925 q 83 939 83 925 l 83 1067 q 97 1081 83 1081 l 111 1081 q 219 1057 169 1081 q 306 994 269 1033 q 364 902 343 954 q 385 793 385 850 l 385 197 q 364 88 385 140 q 307 -4 343 36 q 220 -68 271 -44 q 111 -92 169 -92 l 97 -92 q 83 -78 83 -92 l 83 50 l 83 50 z "},"*":{"ha":497,"x_min":85,"x_max":413,"o":"m 97 753 q 108 794 85 779 l 133 810 l 108 825 q 97 867 85 840 l 126 922 q 150 938 135 938 q 165 933 157 938 l 189 918 l 189 947 q 218 975 189 975 l 281 975 q 308 947 308 975 l 308 918 l 333 933 q 347 938 339 938 q 371 922 363 938 l 400 867 q 389 825 413 840 l 364 810 l 389 794 q 400 753 413 779 l 371 697 q 349 682 363 682 q 333 688 340 682 l 308 703 l 308 674 q 279 644 308 644 l 218 644 q 189 674 189 644 l 189 703 l 165 688 q 149 682 158 682 q 126 697 135 682 l 97 753 l 97 753 z "},"+":{"ha":615,"x_min":83,"x_max":532,"o":"m 83 479 q 94 510 83 499 q 125 521 106 521 l 231 521 l 231 638 q 242 668 231 657 q 272 679 253 679 l 343 679 q 374 668 363 679 q 385 638 385 657 l 385 521 l 490 521 q 521 510 510 521 q 532 479 532 499 l 532 407 q 521 376 532 388 q 490 365 510 365 l 385 365 l 385 249 q 374 218 385 229 q 343 207 363 207 l 272 207 q 242 218 253 207 q 231 249 231 229 l 231 365 l 125 365 q 94 376 106 365 q 83 407 83 388 l 83 479 l 83 479 z "},",":{"ha":353,"x_min":83,"x_max":269,"o":"m 83 89 q 110 156 83 128 q 176 185 136 185 q 243 157 217 185 q 269 89 269 129 l 269 -35 q 258 -65 269 -54 q 228 -76 247 -76 l 188 -76 q 160 -66 171 -76 q 150 -40 150 -56 l 150 -3 q 101 35 118 8 q 83 89 83 61 z "},"-":{"ha":615,"x_min":83,"x_max":532,"o":"m 83 511 q 94 542 83 531 q 125 553 106 553 l 490 553 q 521 542 510 553 q 532 511 532 531 l 532 439 q 521 408 532 419 q 490 397 510 397 l 125 397 q 94 408 106 397 q 83 439 83 419 l 83 511 z "},".":{"ha":353,"x_min":83,"x_max":269,"o":"m 83 96 q 109 163 83 135 q 175 190 135 190 q 244 161 217 190 q 269 96 269 129 q 242 28 269 56 q 175 0 215 0 q 109 28 135 0 q 83 96 83 57 z "},"/":{"ha":769,"x_min":94,"x_max":675,"o":"m 143 -19 q 105 -4 115 -19 q 104 38 94 11 l 513 1126 q 551 1153 522 1153 l 626 1153 q 665 1138 654 1153 q 665 1097 675 1122 l 257 8 q 218 -19 247 -19 l 143 -19 l 143 -19 z "},":":{"ha":353,"x_min":83,"x_max":269,"o":"m 83 624 q 109 692 83 664 q 175 721 135 721 q 242 692 215 721 q 269 624 269 664 q 242 556 269 583 q 175 528 215 528 q 109 556 135 528 q 83 624 83 585 m 83 274 q 109 341 83 313 q 175 369 135 369 q 244 340 217 369 q 269 274 269 308 q 242 206 269 233 q 175 178 215 178 q 109 206 135 178 q 83 274 83 235 z "},";":{"ha":353,"x_min":83,"x_max":269,"o":"m 83 258 q 109 325 83 297 q 175 353 135 353 q 244 324 217 353 q 269 258 269 292 l 269 135 q 258 104 269 115 q 228 93 247 93 l 186 93 q 159 103 169 93 q 149 131 149 114 l 149 167 q 101 202 119 176 q 83 258 83 228 m 175 513 q 109 541 135 513 q 83 608 83 569 q 109 676 83 647 q 175 704 135 704 q 242 676 215 704 q 269 608 269 649 q 242 540 269 568 q 175 513 215 513 z "},"<":{"ha":615,"x_min":83,"x_max":532,"o":"m 83 474 q 89 494 83 485 q 104 510 94 504 l 469 721 q 500 731 485 731 q 532 685 532 731 l 532 600 q 511 564 532 578 l 279 429 l 511 296 q 526 281 521 290 q 532 260 532 271 l 532 176 q 500 131 532 131 q 469 140 485 131 l 104 351 q 83 388 83 365 l 83 474 l 83 474 z "},"=":{"ha":615,"x_min":83,"x_max":532,"o":"m 83 590 q 94 621 83 610 q 125 632 106 632 l 490 632 q 521 621 510 632 q 532 590 532 610 l 532 517 q 521 486 532 497 q 490 475 510 475 l 125 475 q 94 486 106 475 q 83 517 83 497 l 83 590 m 83 344 q 94 375 83 364 q 125 386 106 386 l 490 386 q 521 375 510 386 q 532 344 532 364 l 532 272 q 521 242 532 253 q 490 231 510 231 l 125 231 q 94 242 106 231 q 83 272 83 253 l 83 344 z "},">":{"ha":615,"x_min":83,"x_max":532,"o":"m 83 258 q 89 279 83 269 q 104 294 94 289 l 336 426 l 104 561 q 83 597 83 575 l 83 682 q 115 728 83 728 q 146 718 131 728 l 511 507 q 526 492 521 501 q 532 471 532 482 l 532 385 q 511 349 532 363 l 146 138 q 115 128 131 128 q 83 174 83 128 l 83 258 l 83 258 z "},"?":{"ha":747,"x_min":83,"x_max":664,"o":"m 83 633 q 103 732 83 685 q 156 815 122 779 q 235 873 189 851 q 333 894 281 894 l 414 894 q 514 874 469 894 q 596 813 558 853 q 646 728 628 775 q 664 633 664 682 q 649 543 664 588 q 605 463 633 499 q 537 403 576 428 q 450 374 497 379 l 450 290 q 439 260 450 271 q 408 249 428 249 l 339 249 q 308 260 319 249 q 297 290 297 271 l 297 507 q 317 526 297 526 l 336 526 q 374 527 356 526 q 407 529 392 528 q 483 556 457 532 q 510 633 510 579 q 503 672 510 651 q 453 731 485 711 q 414 739 433 739 l 333 739 q 290 729 308 739 q 260 703 272 719 q 243 665 249 686 q 236 621 238 643 l 236 614 q 229 607 236 607 l 97 607 q 83 621 83 607 l 83 633 m 279 99 q 307 165 279 138 q 374 193 335 193 q 440 165 414 193 q 465 99 465 138 q 440 31 465 60 q 374 3 414 3 q 307 31 335 3 q 279 99 279 60 z "},"@":{"ha":1140,"x_min":83,"x_max":1057,"o":"m 83 515 q 119 710 83 617 q 220 874 156 803 q 374 989 285 946 q 569 1032 464 1032 q 763 990 674 1032 q 918 876 853 947 q 1020 712 983 806 q 1057 515 1057 618 l 1057 251 q 1046 221 1057 232 q 1015 210 1035 210 l 569 210 q 456 235 508 210 q 363 302 403 260 q 301 399 324 344 q 279 515 279 454 q 301 631 279 575 q 361 729 322 686 q 453 797 400 772 q 569 822 507 822 q 685 797 632 822 q 778 731 739 772 q 838 633 817 689 q 860 515 860 578 l 860 367 l 904 367 l 904 515 q 880 651 904 586 q 811 765 856 715 q 705 845 767 815 q 569 875 643 875 q 436 845 497 875 q 331 765 375 815 q 261 651 286 715 q 236 515 236 586 q 261 383 236 447 q 331 267 286 318 q 438 186 376 217 q 569 156 499 156 l 818 156 q 849 144 838 156 q 860 114 860 133 l 860 42 q 849 11 860 22 q 818 0 838 0 l 569 0 q 376 42 465 0 q 222 156 288 85 q 120 319 157 226 q 83 515 83 413 m 443 571 q 433 515 433 546 q 443 460 433 488 q 471 413 453 433 q 514 379 489 392 q 569 367 539 367 l 707 367 l 707 515 q 697 570 707 543 q 669 618 688 597 q 626 652 651 639 q 569 665 600 665 q 491 638 524 665 q 443 571 458 610 z "},"[":{"ha":468,"x_min":83,"x_max":385,"o":"m 83 1065 q 94 1096 83 1085 q 125 1107 106 1107 l 343 1107 q 374 1096 363 1107 q 385 1065 385 1085 l 385 993 q 374 963 385 974 q 343 951 363 951 l 236 951 l 236 90 l 343 90 q 374 79 363 90 q 385 49 385 68 l 385 -24 q 374 -54 385 -43 q 343 -65 363 -65 l 125 -65 q 94 -54 106 -65 q 83 -24 83 -43 l 83 1065 l 83 1065 z "},"\\":{"ha":644,"x_min":94,"x_max":550,"o":"m 103 910 q 105 950 94 935 q 142 965 115 965 l 192 965 q 231 938 221 965 l 542 56 q 540 15 550 31 q 503 0 529 0 l 451 0 q 428 8 439 0 q 413 28 417 15 l 103 910 l 103 910 z "},"]":{"ha":468,"x_min":83,"x_max":385,"o":"m 83 1065 q 94 1096 83 1085 q 125 1107 106 1107 l 343 1107 q 374 1096 363 1107 q 385 1065 385 1085 l 385 -24 q 374 -54 385 -43 q 343 -65 363 -65 l 125 -65 q 94 -54 106 -65 q 83 -24 83 -43 l 83 49 q 94 79 83 68 q 125 90 106 90 l 231 90 l 231 951 l 125 951 q 94 963 106 951 q 83 993 83 974 l 83 1065 z "},"^":{"ha":808,"x_min":97,"x_max":713,"o":"m 146 346 q 108 362 118 346 q 108 404 97 378 l 339 953 q 378 978 350 978 l 432 978 q 471 953 460 978 l 701 404 q 701 362 713 378 q 663 346 690 346 l 613 346 q 590 353 600 346 q 574 372 579 361 l 406 792 l 236 372 q 220 353 231 361 q 197 346 210 346 l 146 346 l 146 346 z "},"_":{"ha":747,"x_min":83,"x_max":664,"o":"m 83 114 q 94 144 83 133 q 125 156 106 156 l 622 156 q 653 144 642 156 q 664 114 664 133 l 664 42 q 653 11 664 22 q 622 0 642 0 l 125 0 q 94 11 106 0 q 83 42 83 22 l 83 114 z "},"`":{"ha":485,"x_min":114,"x_max":383,"o":"m 138 1215 q 122 1265 114 1247 q 169 1283 131 1283 l 246 1283 q 267 1278 257 1283 q 282 1263 276 1272 l 368 1110 q 374 1067 383 1083 q 335 1051 365 1051 l 289 1051 q 256 1067 268 1051 l 138 1215 l 138 1215 z "},"{":{"ha":494,"x_min":83,"x_max":411,"o":"m 83 532 q 97 546 83 546 l 111 546 q 164 563 149 546 q 179 614 179 578 q 171 719 179 667 q 163 772 165 746 q 161 825 161 799 q 214 967 161 918 q 358 1015 267 1015 l 385 1015 q 411 989 411 1015 l 411 910 q 399 896 411 896 l 385 896 q 313 881 331 896 q 296 813 296 864 q 304 719 296 765 q 313 626 313 674 q 302 549 313 586 q 257 489 292 513 q 301 429 289 465 q 313 357 313 392 q 304 261 313 308 q 296 164 296 213 q 300 118 296 135 q 317 93 304 101 q 347 82 325 85 l 397 79 l 404 79 q 411 72 411 79 l 411 -29 q 399 -42 411 -42 l 385 -42 q 292 -31 333 -42 q 221 3 250 -21 q 176 64 192 26 q 161 157 161 101 q 171 261 161 213 q 179 364 179 311 q 160 418 179 403 q 97 431 140 431 l 90 431 q 83 438 83 431 l 83 532 l 83 532 z "},"|":{"ha":300,"x_min":83,"x_max":217,"o":"m 83 1000 q 94 1031 83 1019 q 125 1042 106 1042 l 175 1042 q 206 1031 194 1042 q 217 1000 217 1019 l 217 -67 q 206 -97 217 -86 q 175 -108 194 -108 l 125 -108 q 94 -97 106 -108 q 83 -67 83 -86 l 83 1000 z "},"}":{"ha":494,"x_min":83,"x_max":411,"o":"m 110 -37 q 83 -12 83 -37 l 83 68 q 100 83 83 83 l 115 82 q 181 102 164 85 q 199 168 199 119 q 190 261 199 215 q 181 354 181 304 q 193 431 181 393 q 238 493 206 469 q 193 557 203 519 q 181 631 181 594 q 190 724 181 681 q 199 817 199 769 q 178 886 199 871 q 97 899 156 900 l 90 899 q 83 906 83 899 l 83 1006 q 97 1019 83 1019 l 111 1019 q 174 1016 143 1019 q 233 1001 206 1013 q 282 970 260 990 q 319 918 304 950 q 335 828 335 879 q 325 724 335 772 q 317 671 319 697 q 315 618 315 644 q 335 564 315 576 q 397 550 353 550 l 404 550 q 411 543 411 550 l 411 449 q 399 435 411 435 l 385 435 q 315 368 315 435 q 325 265 315 313 q 335 161 335 217 q 282 14 335 65 q 135 -37 229 -37 l 110 -37 l 110 -37 z "},"~":{"ha":815,"x_min":86,"x_max":731,"o":"m 86 336 q 95 414 86 375 q 124 483 104 453 q 176 533 143 514 q 254 551 208 551 q 344 534 301 551 q 426 494 386 517 l 501 458 q 568 442 539 442 q 590 453 582 442 q 601 479 597 464 l 606 510 l 606 542 q 613 547 606 547 l 708 547 q 731 525 731 547 l 731 503 q 721 430 731 465 q 692 367 711 394 q 641 324 672 340 q 567 307 610 307 q 474 324 518 307 q 389 364 431 342 l 351 385 l 315 401 q 254 417 278 417 q 219 386 228 417 q 215 371 217 379 q 213 354 214 363 l 211 324 l 211 317 q 204 310 211 310 l 100 310 q 86 324 86 310 l 86 336 l 86 336 z "},"®":{"ha":936,"x_min":83,"x_max":853,"o":"m 469 146 q 314 180 385 146 q 192 271 243 214 q 112 403 140 328 q 83 561 83 478 q 112 717 83 642 q 192 849 140 792 q 314 940 243 906 q 469 975 385 975 q 624 942 554 975 q 745 851 694 908 q 824 719 796 794 q 853 561 853 644 q 825 406 853 481 q 747 273 797 331 q 625 181 696 215 q 469 146 554 146 m 381 857 q 308 814 342 843 l 489 814 q 560 798 528 814 q 615 757 592 782 q 649 699 638 732 q 661 633 661 667 q 640 547 661 589 q 578 479 618 504 l 657 335 q 718 442 697 382 q 739 561 739 501 q 721 673 739 617 q 668 773 703 729 q 583 844 633 817 q 469 872 533 872 q 381 857 422 872 m 197 558 q 218 437 197 496 q 279 333 239 378 l 279 563 l 404 563 l 279 785 q 218 680 239 739 q 197 558 197 621 m 319 297 q 469 247 382 247 q 549 260 511 247 q 618 297 586 274 l 553 297 l 465 453 l 389 453 l 389 297 l 319 297 m 450 706 l 524 574 q 551 633 551 594 q 534 683 551 661 q 489 706 517 706 l 450 706 z "},"©":{"ha":936,"x_min":83,"x_max":853,"o":"m 83 569 q 112 725 83 650 q 192 857 140 800 q 314 949 243 914 q 469 983 385 983 q 624 950 554 983 q 745 860 694 917 q 824 728 796 803 q 853 569 853 653 q 825 414 853 489 q 747 281 797 339 q 625 188 696 222 q 469 153 554 153 q 314 187 385 153 q 192 278 243 221 q 112 411 140 336 q 83 569 83 486 m 197 565 q 216 453 197 508 q 269 353 235 397 q 355 283 304 310 q 469 256 406 256 q 583 283 533 256 q 668 356 633 311 q 721 457 703 401 q 739 569 739 513 q 721 681 739 625 q 668 781 703 738 q 583 853 633 825 q 469 881 533 881 q 353 853 404 881 q 268 780 303 825 q 215 678 233 735 q 197 565 197 622 m 239 465 q 221 560 221 510 q 240 658 221 611 q 292 742 258 706 q 370 800 325 778 q 468 822 415 822 l 482 822 q 496 808 496 822 l 496 726 q 482 713 496 713 l 468 713 q 411 700 436 713 q 351 641 372 676 q 329 560 329 606 q 351 479 329 518 q 411 421 372 440 q 468 407 435 407 q 524 420 499 407 q 567 454 549 433 q 597 503 586 475 q 607 560 607 531 l 607 574 q 621 586 607 586 l 704 586 q 717 574 717 586 l 717 560 q 697 462 717 508 q 644 379 678 415 q 566 322 611 343 q 468 300 521 300 q 394 313 431 300 q 328 347 358 325 q 274 399 297 368 q 239 465 251 429 z "},"™":{"ha":946,"x_min":83,"x_max":861,"o":"m 83 935 q 94 965 83 954 q 125 976 106 976 l 372 976 q 397 967 388 976 q 406 943 406 958 l 406 910 l 429 967 l 429 968 q 431 969 429 968 l 432 972 q 438 976 432 976 l 510 976 q 517 974 514 976 l 517 972 q 518 969 518 971 q 519 967 518 968 l 558 874 l 599 967 q 600 969 600 968 q 601 972 600 971 l 603 974 q 608 976 603 976 l 681 976 q 686 972 683 976 l 688 968 q 731 867 710 917 q 772 765 753 817 q 813 663 792 714 q 856 560 833 611 l 860 551 q 854 543 861 543 l 760 543 q 754 547 754 543 l 751 551 q 725 618 738 585 q 699 683 713 651 l 643 815 l 629 778 l 613 740 l 661 626 l 676 585 q 678 579 678 583 l 679 575 l 679 571 q 680 566 681 568 q 679 561 679 564 l 678 556 l 678 554 q 676 551 678 553 l 675 549 q 668 543 675 543 l 435 543 q 429 551 425 543 l 468 651 q 487 696 478 674 q 506 740 496 718 l 492 779 l 475 817 l 422 685 q 394 618 408 651 q 365 551 381 585 l 364 547 q 358 543 361 543 l 238 543 q 207 554 218 543 q 196 585 196 565 l 196 878 l 125 878 q 94 889 106 878 q 83 919 83 900 l 83 935 m 294 638 q 344 758 319 700 q 393 878 369 815 l 294 878 l 294 638 z "},"´":{"ha":485,"x_min":101,"x_max":372,"o":"m 150 1051 q 110 1067 119 1051 q 117 1110 101 1083 l 204 1263 q 240 1283 218 1283 l 315 1283 q 363 1265 354 1283 q 347 1215 372 1247 l 229 1067 q 197 1051 217 1051 l 150 1051 l 150 1051 z "},"¨":{"ha":474,"x_min":83,"x_max":407,"o":"m 83 1143 q 109 1206 83 1179 q 172 1233 135 1233 q 216 1221 199 1233 q 246 1186 233 1208 q 278 1220 257 1207 q 322 1233 299 1233 q 383 1206 360 1233 q 407 1143 407 1179 q 383 1081 407 1107 q 322 1054 358 1054 q 278 1067 299 1054 q 246 1101 257 1081 q 216 1067 235 1081 q 172 1054 197 1054 q 110 1081 136 1054 q 83 1143 83 1107 z "},"˚":{"ha":488,"x_min":96,"x_max":400,"o":"m 96 1122 q 108 1182 96 1153 q 140 1233 119 1211 q 188 1267 160 1254 q 247 1281 215 1281 q 307 1268 279 1281 q 356 1233 335 1256 q 388 1183 376 1211 q 400 1122 400 1154 q 388 1063 400 1090 q 356 1013 376 1035 q 307 978 335 990 q 247 965 279 965 q 186 978 215 965 q 138 1015 157 992 q 107 1065 118 1035 q 96 1122 96 1094 m 206 1122 q 218 1088 206 1103 q 247 1074 231 1074 q 278 1088 265 1074 q 290 1122 290 1103 q 278 1156 290 1142 q 247 1171 267 1171 q 217 1156 229 1171 q 206 1122 206 1142 z "},"ˆ":{"ha":558,"x_min":104,"x_max":454,"o":"m 154 1051 q 113 1067 122 1051 q 121 1111 104 1083 l 214 1264 q 250 1283 228 1283 l 306 1283 q 342 1264 329 1283 l 436 1113 q 444 1068 454 1085 q 403 1051 435 1051 l 354 1051 q 318 1072 332 1051 l 276 1146 l 236 1072 q 199 1051 222 1051 l 154 1051 l 154 1051 z "},"˜":{"ha":517,"x_min":86,"x_max":433,"o":"m 86 1078 q 92 1132 86 1108 q 108 1182 96 1158 q 193 1233 133 1233 q 249 1219 222 1233 q 300 1190 276 1206 l 317 1185 l 321 1196 l 324 1213 l 324 1224 l 324 1229 l 325 1233 q 332 1239 325 1239 l 421 1239 q 433 1226 433 1239 l 433 1214 q 433 1191 433 1203 q 431 1165 432 1179 q 415 1115 426 1140 q 324 1060 386 1060 q 281 1068 299 1060 l 246 1085 q 243 1088 246 1085 l 231 1096 l 204 1108 l 199 1088 l 197 1064 l 197 1058 q 190 1051 194 1051 l 100 1051 q 86 1065 86 1051 l 86 1078 z "},"˙":{"ha":339,"x_min":83,"x_max":256,"o":"m 83 1138 q 110 1200 83 1174 q 172 1226 136 1226 q 235 1199 211 1226 q 256 1138 256 1169 q 233 1075 256 1101 q 172 1049 210 1049 q 110 1075 136 1049 q 83 1138 83 1101 z "},"¸":{"ha":429,"x_min":85,"x_max":346,"o":"m 89 -225 q 85 -217 85 -224 l 115 -124 q 126 -121 118 -115 l 165 -143 q 197 -149 176 -149 q 221 -135 221 -149 q 192 -112 221 -124 l 135 -104 l 125 -104 q 119 -93 113 -101 l 183 26 q 219 49 194 49 l 278 49 q 303 38 297 49 q 300 11 310 28 l 276 -28 q 327 -68 308 -43 q 346 -129 346 -93 q 335 -186 346 -160 q 301 -226 322 -210 q 254 -250 278 -243 q 196 -257 224 -257 q 142 -250 169 -257 q 93 -226 118 -242 l 89 -225 l 89 -225 z "},"˝":{"ha":669,"x_min":101,"x_max":586,"o":"m 150 1053 q 110 1069 119 1053 q 117 1111 101 1085 l 204 1264 q 240 1285 218 1285 l 315 1285 q 363 1267 354 1285 q 347 1217 372 1249 l 229 1068 q 197 1053 217 1053 l 150 1053 m 365 1053 q 326 1069 335 1053 q 332 1111 317 1085 l 419 1264 q 456 1285 433 1285 l 529 1285 q 577 1267 568 1285 q 563 1217 586 1249 l 444 1068 q 413 1053 432 1053 l 365 1053 z "},"ˇ":{"ha":563,"x_min":104,"x_max":458,"o":"m 122 1222 q 114 1267 104 1250 q 156 1283 124 1283 l 204 1283 q 225 1278 215 1283 q 240 1263 235 1272 l 282 1189 l 325 1263 q 361 1283 339 1283 l 408 1283 q 449 1267 440 1283 q 442 1224 458 1251 l 349 1071 q 313 1051 336 1051 l 253 1051 q 217 1071 231 1051 l 122 1222 l 122 1222 z "},"÷":{"ha":615,"x_min":83,"x_max":532,"o":"m 83 518 q 94 549 83 538 q 125 560 106 560 l 490 560 q 521 549 510 560 q 532 518 532 538 l 532 446 q 521 415 532 426 q 490 404 510 404 l 125 404 q 94 415 106 404 q 83 446 83 426 l 83 518 m 307 183 q 241 211 267 183 q 215 279 215 239 q 241 347 215 318 q 307 375 267 375 q 375 346 347 375 q 400 279 400 314 q 374 211 400 239 q 307 183 347 183 m 307 589 q 241 617 267 589 q 215 685 215 646 q 241 752 215 724 q 307 781 267 781 q 374 752 347 781 q 400 685 400 724 q 374 617 400 646 q 307 589 347 589 z "},"¼":{"ha":982,"x_min":83,"x_max":899,"o":"m 481 204 q 489 229 481 218 l 743 588 q 778 606 754 606 l 829 606 q 860 594 849 606 q 871 564 871 583 l 871 236 l 885 236 q 899 222 899 236 l 899 132 q 885 118 899 118 l 871 118 l 871 58 q 860 28 871 39 q 829 17 849 17 l 794 17 q 764 28 775 17 q 753 58 753 39 l 753 118 l 522 118 q 492 129 503 118 q 481 160 481 140 l 481 204 m 218 0 q 180 15 189 0 q 183 56 171 31 l 618 878 q 654 900 629 900 l 693 900 q 731 885 721 900 q 726 844 740 869 l 292 22 q 256 0 281 0 l 218 0 m 131 611 q 103 594 114 594 q 83 631 83 594 l 83 711 q 88 728 83 719 q 100 744 93 738 q 142 783 121 764 q 182 821 163 801 l 283 921 q 294 915 294 932 l 294 349 q 283 318 294 329 q 253 307 272 307 l 219 307 q 189 318 200 307 q 178 349 178 329 l 178 656 l 131 611 m 753 236 l 753 407 l 632 236 l 753 236 z "},"½":{"ha":1014,"x_min":83,"x_max":931,"o":"m 542 82 q 566 167 542 131 q 632 228 590 204 l 728 283 q 783 327 761 303 q 806 393 806 351 q 787 448 806 425 q 735 471 768 471 q 684 447 703 471 q 665 393 665 422 l 665 381 q 653 367 665 367 l 563 367 q 549 381 549 367 l 549 393 q 563 467 549 432 q 601 530 576 503 q 660 574 626 557 q 735 590 694 590 q 810 574 775 590 q 869 531 844 558 q 909 468 894 504 q 924 393 924 432 q 903 302 924 344 q 842 231 882 260 q 818 213 831 221 q 794 199 806 206 l 710 150 q 679 119 688 133 l 889 119 q 919 108 908 119 q 931 78 931 97 l 931 43 q 919 13 931 24 q 889 1 908 1 l 582 1 q 553 13 564 1 q 542 42 542 24 l 542 82 m 211 -15 q 173 0 182 -15 q 176 40 164 15 l 611 863 q 647 885 622 885 l 686 885 q 724 869 715 885 q 721 828 733 854 l 286 7 q 249 -15 272 -15 l 211 -15 m 131 601 q 103 586 113 586 q 83 622 83 586 l 83 701 q 88 720 83 711 q 100 735 93 729 q 142 773 121 754 q 182 811 163 792 l 283 911 q 294 906 294 922 l 294 338 q 283 307 294 318 q 253 296 272 296 l 219 296 q 189 307 200 296 q 178 338 178 318 l 178 646 l 131 601 z "},"¾":{"ha":1083,"x_min":83,"x_max":1000,"o":"m 624 114 q 593 125 604 114 q 582 156 582 136 l 582 200 q 590 225 582 214 l 844 583 q 879 601 856 601 l 929 601 q 960 590 949 601 q 971 560 971 579 l 971 232 l 986 232 q 1000 218 1000 232 l 1000 129 q 986 114 1000 114 l 971 114 l 971 56 q 960 25 971 36 q 929 14 949 14 l 896 14 q 865 25 876 14 q 854 56 854 36 l 854 114 l 624 114 m 83 496 q 97 508 83 508 l 193 508 q 200 501 200 508 l 200 494 q 211 447 200 469 q 251 425 222 425 l 304 425 q 340 443 326 425 q 356 482 356 461 q 347 519 356 508 q 322 536 336 529 l 306 540 l 285 542 l 231 542 q 224 549 224 542 l 224 629 q 231 653 224 642 l 318 776 l 142 776 q 111 788 122 776 q 100 818 100 799 l 100 853 q 111 883 100 872 q 142 894 122 894 l 449 894 q 479 883 468 894 q 490 853 490 872 l 489 806 q 482 783 489 793 l 436 715 q 409 677 422 696 q 382 639 396 658 q 472 482 472 585 q 461 418 472 451 q 401 338 442 368 q 304 307 361 307 l 251 307 q 186 322 217 307 q 133 360 156 336 q 97 416 110 385 q 83 482 83 447 l 83 496 m 344 1 q 306 17 315 1 q 311 58 297 32 l 746 879 q 782 901 757 901 l 821 901 q 859 886 850 901 q 856 844 868 871 l 421 24 q 383 1 407 1 l 344 1 m 854 232 l 854 404 l 732 232 l 854 232 z "},"×":{"ha":633,"x_min":85,"x_max":549,"o":"m 110 438 q 110 493 85 465 l 158 546 q 189 561 174 561 q 219 546 207 561 l 317 442 l 414 546 q 444 561 429 561 q 475 546 463 561 l 524 493 q 524 438 549 465 l 422 328 l 524 221 q 524 164 549 192 l 475 111 q 444 97 463 97 q 414 111 428 97 l 317 215 l 219 111 q 189 97 207 97 q 158 111 172 97 l 110 164 q 110 221 85 192 l 211 328 l 110 438 l 110 438 z "},"’":{"ha":214,"x_min":14,"x_max":200,"o":"m 14 932 q 41 999 14 971 q 107 1026 68 1026 q 174 999 147 1026 q 200 932 200 972 l 200 807 q 189 776 200 788 q 158 765 178 765 l 118 765 q 91 776 101 765 q 81 803 81 786 l 81 840 q 32 876 47 851 q 14 932 14 903 z "},"”":{"ha":364,"x_min":14,"x_max":350,"o":"m 14 932 q 41 999 14 971 q 107 1026 68 1026 q 150 1016 129 1026 q 182 986 171 1006 q 215 1016 194 1006 q 258 1026 235 1026 q 324 999 299 1026 q 350 932 350 971 l 350 807 q 339 776 350 788 q 308 765 328 765 l 268 765 q 241 776 251 765 q 231 803 231 786 l 231 840 q 200 857 214 844 l 200 807 q 189 776 200 788 q 158 765 178 765 l 118 765 q 91 776 101 765 q 81 803 81 786 l 81 840 q 32 876 47 851 q 14 932 14 903 z "},"“":{"ha":364,"x_min":14,"x_max":350,"o":"m 106 765 q 40 794 65 765 q 14 861 14 822 l 14 985 q 25 1015 14 1004 q 56 1026 36 1026 l 97 1026 q 123 1016 113 1026 q 133 990 133 1006 l 133 953 q 164 936 154 946 l 164 985 q 175 1015 164 1004 q 206 1026 186 1026 l 247 1026 q 273 1016 263 1026 q 283 990 283 1006 l 283 953 q 333 917 315 942 q 350 861 350 889 q 324 794 350 822 q 257 765 297 765 q 213 778 231 765 q 182 806 192 789 q 150 778 169 789 q 106 765 131 765 z "},"‘":{"ha":214,"x_min":14,"x_max":200,"o":"m 14 985 q 25 1015 14 1004 q 56 1026 36 1026 l 97 1026 q 123 1016 113 1026 q 133 990 133 1006 l 133 953 q 183 917 165 942 q 200 861 200 889 q 173 793 200 821 q 106 765 146 765 q 40 794 65 765 q 14 861 14 822 l 14 985 z "},"\u0002":{"ha":14,"x_min":0,"x_max":0,"o":""},"\t":{"ha":111,"x_min":0,"x_max":0,"o":""},"◊":{"ha":1000,"x_min":0,"x_max":0,"o":""},"¯":{"ha":444,"x_min":0,"x_max":0,"o":""},"˘":{"ha":444,"x_min":0,"x_max":0,"o":""},"˛":{"ha":444,"x_min":0,"x_max":0,"o":""},"Ä":{"ha":972,"x_min":26,"x_max":946,"o":"m 76 0 q 38 16 49 0 q 38 57 26 32 l 403 949 q 442 975 414 975 l 531 975 q 569 949 558 975 l 935 57 q 935 16 946 32 q 896 0 924 0 l 788 0 q 782 4 782 0 l 779 8 q 703 186 740 97 q 632 365 667 275 q 560 543 596 454 q 486 722 524 632 q 431 583 458 651 q 375 444 403 514 q 319 306 347 374 q 260 167 290 238 l 624 167 q 663 140 651 167 l 696 57 q 696 16 707 32 q 657 0 685 0 l 76 0 m 324 1143 q 349 1206 324 1179 q 413 1233 375 1233 q 456 1221 439 1233 q 486 1186 474 1208 q 518 1220 497 1207 q 563 1233 539 1233 q 624 1206 600 1233 q 647 1143 647 1179 q 623 1081 647 1107 q 563 1054 599 1054 q 518 1067 539 1054 q 486 1101 497 1081 q 456 1067 475 1081 q 413 1054 438 1054 q 350 1081 376 1054 q 324 1143 324 1107 z "},"Å":{"ha":972,"x_min":26,"x_max":946,"o":"m 76 0 q 38 16 49 0 q 38 57 26 32 l 403 949 q 433 974 411 969 q 428 976 431 975 q 422 979 425 978 q 397 995 408 986 q 375 1015 385 1004 q 344 1065 356 1035 q 333 1122 333 1094 q 345 1182 333 1153 q 377 1233 357 1211 q 425 1267 397 1254 q 485 1281 453 1281 q 544 1268 517 1281 q 593 1233 572 1256 q 626 1183 614 1211 q 638 1122 638 1154 q 609 1033 638 1075 q 536 975 581 990 q 569 949 561 971 l 935 57 q 935 16 946 32 q 896 0 924 0 l 788 0 q 782 4 782 0 l 779 8 q 703 186 740 97 q 632 365 667 275 q 560 543 596 454 q 486 722 524 632 q 431 583 458 651 q 375 444 403 514 q 319 306 347 374 q 260 167 290 238 l 624 167 q 663 140 651 167 l 696 57 q 696 16 707 32 q 657 0 685 0 l 76 0 m 456 1157 q 443 1122 443 1142 q 456 1088 443 1103 q 485 1074 468 1074 q 515 1088 503 1074 q 528 1122 528 1103 q 516 1156 528 1142 q 485 1171 504 1171 q 456 1157 465 1171 z "},"Ç":{"ha":1000,"x_min":28,"x_max":972,"o":"m 447 -11 q 279 44 356 -1 q 147 159 203 90 q 59 313 90 228 q 28 488 28 399 q 63 675 28 585 q 162 835 99 765 q 312 947 225 906 q 500 989 399 989 l 514 989 q 526 976 526 989 l 526 835 q 514 821 526 821 l 500 821 q 376 793 433 821 q 278 719 319 765 q 213 613 236 674 q 190 488 190 553 q 213 363 190 422 q 277 256 236 303 q 375 182 318 210 q 500 154 432 154 q 624 182 567 154 q 722 256 681 210 q 787 362 764 301 q 810 488 810 422 l 810 500 q 822 513 810 513 l 960 513 q 972 500 972 513 l 972 488 q 944 316 972 399 q 863 166 915 233 q 736 52 810 99 q 572 -8 663 6 l 561 -28 q 612 -68 593 -43 q 631 -129 631 -93 q 619 -186 631 -160 q 586 -226 607 -210 q 539 -250 563 -243 q 481 -257 508 -257 q 426 -250 454 -257 q 378 -226 403 -242 l 374 -225 q 369 -217 369 -224 l 400 -124 q 411 -121 403 -115 l 450 -143 q 482 -149 461 -149 q 506 -135 506 -149 q 476 -112 506 -124 l 419 -104 l 410 -104 q 404 -93 397 -101 l 447 -11 l 447 -11 z "},"É":{"ha":781,"x_min":83,"x_max":739,"o":"m 83 933 q 94 964 83 953 q 125 975 106 975 l 697 975 q 728 964 717 975 q 739 933 739 953 l 739 851 q 728 821 739 832 q 697 810 717 810 l 246 810 l 246 629 l 589 629 q 619 618 608 629 q 631 588 631 607 l 631 504 q 619 474 631 485 q 589 463 608 463 l 246 463 l 246 167 l 697 167 q 728 156 717 167 q 739 125 739 144 l 739 42 q 728 11 739 22 q 697 0 717 0 l 125 0 q 94 11 106 0 q 83 42 83 22 l 83 933 m 297 1051 q 258 1067 267 1051 q 264 1110 249 1083 l 351 1263 q 388 1283 365 1283 l 463 1283 q 510 1265 501 1283 q 494 1215 519 1247 l 376 1067 q 344 1051 364 1051 l 297 1051 z "},"Ñ":{"ha":869,"x_min":83,"x_max":786,"o":"m 83 933 q 94 964 83 953 q 125 975 106 975 l 222 975 q 243 969 233 975 q 258 954 253 964 l 625 313 l 625 810 l 418 810 q 388 821 399 810 q 376 851 376 832 l 376 933 q 388 964 376 953 q 418 975 399 975 l 744 975 q 775 964 764 975 q 786 933 786 953 l 786 42 q 775 11 786 22 q 744 0 764 0 l 649 0 q 611 21 625 0 l 246 671 l 246 42 q 235 11 246 22 q 204 0 224 0 l 125 0 q 94 11 106 0 q 83 42 83 22 l 83 933 m 261 1078 q 267 1132 261 1108 q 283 1182 271 1158 q 368 1233 308 1233 q 424 1219 397 1233 q 475 1190 451 1206 l 492 1185 l 496 1196 l 499 1213 l 499 1224 l 499 1229 l 500 1233 q 507 1239 500 1239 l 596 1239 q 608 1226 608 1239 l 608 1214 q 608 1191 608 1203 q 606 1165 607 1179 q 590 1115 601 1140 q 499 1060 561 1060 q 456 1068 474 1060 l 421 1085 q 418 1088 421 1085 l 406 1096 l 379 1108 l 374 1088 l 372 1064 l 372 1058 q 365 1051 369 1051 l 275 1051 q 261 1065 261 1051 l 261 1078 z "},"Ö":{"ha":1069,"x_min":28,"x_max":1042,"o":"m 535 -14 q 340 26 432 -14 q 179 133 249 65 q 69 292 110 200 q 28 488 28 383 q 68 683 28 592 q 177 842 108 774 q 338 949 246 910 q 535 989 431 989 q 730 950 638 989 q 892 843 822 911 q 1001 684 961 775 q 1042 488 1042 593 q 1001 293 1042 385 q 892 133 961 201 q 731 26 822 65 q 535 -14 639 -14 m 225 615 q 199 488 199 557 q 224 362 199 422 q 295 256 250 301 q 402 182 340 210 q 535 154 464 154 q 668 181 607 154 q 774 254 729 208 q 845 360 819 300 q 871 488 871 421 q 846 615 871 554 q 776 721 821 675 q 669 794 731 767 q 535 821 607 821 q 432 806 481 821 q 344 763 383 790 q 274 697 304 735 q 225 615 243 660 m 372 1143 q 398 1206 372 1179 q 461 1233 424 1233 q 505 1221 488 1233 q 535 1186 522 1208 q 567 1220 546 1207 q 611 1233 588 1233 q 672 1206 649 1233 q 696 1143 696 1179 q 672 1081 696 1107 q 611 1054 647 1054 q 567 1067 588 1054 q 535 1101 546 1081 q 505 1067 524 1081 q 461 1054 486 1054 q 399 1081 425 1054 q 372 1143 372 1107 m 540 408 q 483 431 508 408 q 457 488 457 454 q 481 545 457 522 q 540 568 506 568 q 599 546 576 568 q 622 488 622 524 q 599 430 622 451 q 540 408 575 408 z "},"Ü":{"ha":869,"x_min":83,"x_max":786,"o":"m 436 0 q 297 31 361 0 q 185 113 232 61 q 110 231 138 164 q 83 372 83 299 l 83 933 q 94 964 83 953 q 125 975 106 975 l 204 975 q 235 964 224 975 q 246 933 246 953 l 246 372 q 260 297 246 331 q 326 203 279 239 q 436 167 374 167 q 511 184 476 167 q 571 231 546 201 q 610 297 596 260 q 625 372 625 333 l 625 933 q 636 964 625 953 q 667 975 647 975 l 744 975 q 775 964 764 975 q 786 933 786 953 l 786 372 q 760 233 786 300 q 687 114 733 165 q 576 31 640 63 q 436 0 511 0 m 272 1143 q 298 1206 272 1179 q 361 1233 324 1233 q 405 1221 388 1233 q 435 1186 422 1208 q 467 1220 446 1207 q 511 1233 488 1233 q 572 1206 549 1233 q 596 1143 596 1179 q 572 1081 596 1107 q 511 1054 547 1054 q 467 1067 488 1054 q 435 1101 446 1081 q 405 1067 424 1081 q 361 1054 386 1054 q 299 1081 325 1054 q 272 1143 272 1107 z "},"á":{"ha":972,"x_min":26,"x_max":946,"o":"m 76 0 q 38 16 49 0 q 38 57 26 32 l 403 949 q 442 975 414 975 l 531 975 q 569 949 558 975 l 935 57 q 935 16 946 32 q 896 0 924 0 l 810 0 q 787 8 797 0 q 771 26 776 15 l 486 722 l 260 167 l 624 167 q 663 140 651 167 l 696 57 q 696 16 707 32 q 657 0 685 0 l 76 0 m 393 1051 q 353 1067 363 1051 q 360 1110 344 1083 l 447 1263 q 483 1283 461 1283 l 558 1283 q 606 1265 597 1283 q 590 1215 615 1247 l 472 1067 q 440 1051 460 1051 l 393 1051 z "},"à":{"ha":972,"x_min":26,"x_max":946,"o":"m 76 0 q 38 16 49 0 q 38 57 26 32 l 403 949 q 442 975 414 975 l 531 975 q 569 949 558 975 l 935 57 q 935 16 946 32 q 896 0 924 0 l 810 0 q 787 8 797 0 q 771 26 776 15 l 486 722 l 260 167 l 624 167 q 663 140 651 167 l 696 57 q 696 16 707 32 q 657 0 685 0 l 76 0 m 381 1215 q 365 1265 357 1247 q 413 1283 374 1283 l 489 1283 q 510 1278 500 1283 q 525 1263 519 1272 l 611 1110 q 617 1067 626 1083 q 578 1051 608 1051 l 532 1051 q 499 1067 511 1051 l 381 1215 z "},"â":{"ha":972,"x_min":26,"x_max":946,"o":"m 76 0 q 38 16 49 0 q 38 57 26 32 l 403 949 q 442 975 414 975 l 531 975 q 569 949 558 975 l 935 57 q 935 16 946 32 q 896 0 924 0 l 810 0 q 787 8 797 0 q 771 26 776 15 l 486 722 l 260 167 l 624 167 q 663 140 651 167 l 696 57 q 696 16 707 32 q 657 0 685 0 l 76 0 m 361 1051 q 320 1067 329 1051 q 328 1111 311 1083 l 421 1264 q 457 1283 435 1283 l 513 1283 q 549 1264 536 1283 l 643 1113 q 651 1068 661 1085 q 610 1051 642 1051 l 561 1051 q 525 1072 539 1051 l 483 1146 l 443 1072 q 406 1051 429 1051 l 361 1051 z "},"ä":{"ha":972,"x_min":26,"x_max":946,"o":"m 76 0 q 38 16 49 0 q 38 57 26 32 l 403 949 q 442 975 414 975 l 531 975 q 569 949 558 975 l 935 57 q 935 16 946 32 q 896 0 924 0 l 810 0 q 787 8 797 0 q 771 26 776 15 l 486 722 l 260 167 l 624 167 q 663 140 651 167 l 696 57 q 696 16 707 32 q 657 0 685 0 l 76 0 m 413 1054 q 350 1081 376 1054 q 324 1143 324 1107 q 349 1206 324 1179 q 413 1233 375 1233 q 456 1221 439 1233 q 486 1186 474 1208 q 518 1220 497 1207 q 563 1233 539 1233 q 624 1206 600 1233 q 647 1143 647 1179 q 623 1081 647 1107 q 563 1054 599 1054 q 518 1067 539 1054 q 486 1101 497 1081 q 456 1067 475 1081 q 413 1054 438 1054 z "},"ã":{"ha":972,"x_min":26,"x_max":946,"o":"m 76 0 q 38 16 49 0 q 38 57 26 32 l 403 949 q 442 975 414 975 l 531 975 q 569 949 558 975 l 935 57 q 935 16 946 32 q 896 0 924 0 l 810 0 q 787 8 797 0 q 771 26 776 15 l 486 722 l 260 167 l 624 167 q 663 140 651 167 l 696 57 q 696 16 707 32 q 657 0 685 0 l 76 0 m 313 1078 q 318 1132 313 1108 q 335 1182 322 1158 q 419 1233 360 1233 q 476 1219 449 1233 q 526 1190 503 1206 l 543 1185 l 547 1196 l 550 1213 l 550 1224 l 550 1229 l 551 1233 q 558 1239 551 1239 l 647 1239 q 660 1226 660 1239 l 660 1214 q 659 1191 660 1203 q 657 1165 658 1179 q 642 1115 653 1140 q 550 1060 613 1060 q 507 1068 525 1060 l 472 1085 q 469 1088 472 1085 l 457 1096 l 431 1108 l 425 1088 l 424 1064 l 424 1058 q 417 1051 421 1051 l 326 1051 q 313 1065 313 1051 l 313 1078 z "},"å":{"ha":972,"x_min":26,"x_max":946,"o":"m 76 0 q 38 16 49 0 q 38 57 26 32 l 403 949 q 433 974 411 969 q 428 976 431 975 q 422 979 425 978 q 397 995 408 986 q 375 1015 385 1004 q 344 1065 356 1035 q 333 1122 333 1094 q 345 1182 333 1153 q 377 1233 357 1211 q 425 1267 397 1254 q 485 1281 453 1281 q 544 1268 517 1281 q 593 1233 572 1256 q 626 1183 614 1211 q 638 1122 638 1154 q 609 1033 638 1075 q 536 975 581 990 q 569 949 561 971 l 935 57 q 935 16 946 32 q 896 0 924 0 l 810 0 q 787 8 797 0 q 771 26 776 15 l 486 722 l 260 167 l 624 167 q 663 140 651 167 l 696 57 q 696 16 707 32 q 657 0 685 0 l 76 0 m 456 1157 q 443 1122 443 1142 q 456 1088 443 1103 q 485 1074 468 1074 q 515 1088 503 1074 q 528 1122 528 1103 q 516 1156 528 1142 q 485 1171 504 1171 q 456 1157 465 1171 z "},"ç":{"ha":1000,"x_min":28,"x_max":972,"o":"m 447 -11 q 279 44 356 -1 q 147 159 203 90 q 59 313 90 228 q 28 488 28 399 q 63 675 28 585 q 162 835 99 765 q 312 947 225 906 q 500 989 399 989 l 514 989 q 526 976 526 989 l 526 835 q 514 821 526 821 l 500 821 q 376 793 433 821 q 278 719 319 765 q 213 613 236 674 q 190 488 190 553 q 213 363 190 422 q 277 256 236 303 q 375 182 318 210 q 500 154 432 154 q 624 182 567 154 q 722 256 681 210 q 787 362 764 301 q 810 488 810 422 l 810 500 q 822 513 810 513 l 960 513 q 972 500 972 513 l 972 488 q 944 316 972 399 q 863 166 915 233 q 736 52 810 99 q 572 -8 663 6 l 561 -28 q 612 -68 593 -43 q 631 -129 631 -93 q 619 -186 631 -160 q 586 -226 607 -210 q 539 -250 563 -243 q 481 -257 508 -257 q 426 -250 454 -257 q 378 -226 403 -242 l 374 -225 q 369 -217 369 -224 l 400 -124 q 411 -121 403 -115 l 450 -143 q 482 -149 461 -149 q 506 -135 506 -149 q 476 -112 506 -124 l 419 -104 l 410 -104 q 404 -93 397 -101 l 447 -11 l 447 -11 z "},"é":{"ha":781,"x_min":83,"x_max":739,"o":"m 83 933 q 94 964 83 953 q 125 975 106 975 l 697 975 q 728 964 717 975 q 739 933 739 953 l 739 851 q 728 821 739 832 q 697 810 717 810 l 246 810 l 246 629 l 589 629 q 619 618 608 629 q 631 588 631 607 l 631 504 q 619 474 631 485 q 589 463 608 463 l 246 463 l 246 167 l 697 167 q 728 156 717 167 q 739 125 739 144 l 739 42 q 728 11 739 22 q 697 0 717 0 l 125 0 q 94 11 106 0 q 83 42 83 22 l 83 933 m 297 1051 q 258 1067 267 1051 q 264 1110 249 1083 l 351 1263 q 388 1283 365 1283 l 463 1283 q 510 1265 501 1283 q 494 1215 519 1247 l 376 1067 q 344 1051 364 1051 l 297 1051 z "},"è":{"ha":781,"x_min":83,"x_max":739,"o":"m 83 933 q 94 964 83 953 q 125 975 106 975 l 697 975 q 728 964 717 975 q 739 933 739 953 l 739 851 q 728 821 739 832 q 697 810 717 810 l 246 810 l 246 629 l 589 629 q 619 618 608 629 q 631 588 631 607 l 631 504 q 619 474 631 485 q 589 463 608 463 l 246 463 l 246 167 l 697 167 q 728 156 717 167 q 739 125 739 144 l 739 42 q 728 11 739 22 q 697 0 717 0 l 125 0 q 94 11 106 0 q 83 42 83 22 l 83 933 m 285 1215 q 269 1265 261 1247 q 317 1283 278 1283 l 393 1283 q 414 1278 404 1283 q 429 1263 424 1272 l 515 1110 q 522 1067 531 1083 q 482 1051 513 1051 l 436 1051 q 403 1067 415 1051 l 285 1215 z "},"ê":{"ha":781,"x_min":83,"x_max":739,"o":"m 83 933 q 94 964 83 953 q 125 975 106 975 l 697 975 q 728 964 717 975 q 739 933 739 953 l 739 851 q 728 821 739 832 q 697 810 717 810 l 246 810 l 246 629 l 589 629 q 619 618 608 629 q 631 588 631 607 l 631 504 q 619 474 631 485 q 589 463 608 463 l 246 463 l 246 167 l 697 167 q 728 156 717 167 q 739 125 739 144 l 739 42 q 728 11 739 22 q 697 0 717 0 l 125 0 q 94 11 106 0 q 83 42 83 22 l 83 933 m 265 1051 q 224 1067 233 1051 q 232 1111 215 1083 l 325 1264 q 361 1283 339 1283 l 417 1283 q 453 1264 440 1283 l 547 1113 q 556 1068 565 1085 q 514 1051 546 1051 l 465 1051 q 429 1072 443 1051 l 388 1146 l 347 1072 q 310 1051 333 1051 l 265 1051 z "},"ë":{"ha":781,"x_min":83,"x_max":739,"o":"m 83 933 q 94 964 83 953 q 125 975 106 975 l 697 975 q 728 964 717 975 q 739 933 739 953 l 739 851 q 728 821 739 832 q 697 810 717 810 l 246 810 l 246 629 l 589 629 q 619 618 608 629 q 631 588 631 607 l 631 504 q 619 474 631 485 q 589 463 608 463 l 246 463 l 246 167 l 697 167 q 728 156 717 167 q 739 125 739 144 l 739 42 q 728 11 739 22 q 697 0 717 0 l 125 0 q 94 11 106 0 q 83 42 83 22 l 83 933 m 317 1054 q 254 1081 281 1054 q 228 1143 228 1107 q 253 1206 228 1179 q 317 1233 279 1233 q 360 1221 343 1233 q 390 1186 378 1208 q 422 1220 401 1207 q 467 1233 443 1233 q 528 1206 504 1233 q 551 1143 551 1179 q 527 1081 551 1107 q 467 1054 503 1054 q 422 1067 443 1054 q 390 1101 401 1081 q 360 1067 379 1081 q 317 1054 342 1054 z "},"í":{"ha":329,"x_min":24,"x_max":294,"o":"m 83 933 q 94 964 83 953 q 125 975 106 975 l 204 975 q 235 964 224 975 q 246 933 246 953 l 246 42 q 235 11 246 22 q 204 0 224 0 l 125 0 q 94 11 106 0 q 83 42 83 22 l 83 933 m 72 1051 q 33 1067 42 1051 q 39 1110 24 1083 l 126 1263 q 163 1283 140 1283 l 238 1283 q 285 1265 276 1283 q 269 1215 294 1247 l 151 1067 q 119 1051 139 1051 l 72 1051 z "},"î":{"ha":329,"x_min":-10,"x_max":340,"o":"m 125 0 q 94 11 106 0 q 83 42 83 22 l 83 933 q 94 964 83 953 q 125 975 106 975 l 204 975 q 235 964 224 975 q 246 933 246 953 l 246 42 q 235 11 246 22 q 204 0 224 0 l 125 0 m 40 1051 q -1 1067 8 1051 q 7 1111 -10 1083 l 100 1264 q 136 1283 114 1283 l 192 1283 q 228 1264 215 1283 l 322 1113 q 331 1068 340 1085 q 289 1051 321 1051 l 240 1051 q 204 1072 218 1051 l 163 1146 l 122 1072 q 85 1051 108 1051 l 40 1051 z "},"ì":{"ha":329,"x_min":36,"x_max":306,"o":"m 83 933 q 94 964 83 953 q 125 975 106 975 l 204 975 q 235 964 224 975 q 246 933 246 953 l 246 42 q 235 11 246 22 q 204 0 224 0 l 125 0 q 94 11 106 0 q 83 42 83 22 l 83 933 m 60 1215 q 44 1265 36 1247 q 92 1283 53 1283 l 168 1283 q 189 1278 179 1283 q 204 1263 199 1272 l 290 1110 q 297 1067 306 1083 q 257 1051 288 1051 l 211 1051 q 178 1067 190 1051 l 60 1215 z "},"ï":{"ha":329,"x_min":3,"x_max":326,"o":"m 83 933 q 94 964 83 953 q 125 975 106 975 l 204 975 q 235 964 224 975 q 246 933 246 953 l 246 42 q 235 11 246 22 q 204 0 224 0 l 125 0 q 94 11 106 0 q 83 42 83 22 l 83 933 m 3 1143 q 28 1206 3 1179 q 92 1233 54 1233 q 135 1221 118 1233 q 165 1186 153 1208 q 197 1220 176 1207 q 242 1233 218 1233 q 303 1206 279 1233 q 326 1143 326 1179 q 302 1081 326 1107 q 242 1054 278 1054 q 197 1067 218 1054 q 165 1101 176 1081 q 135 1067 154 1081 q 92 1054 117 1054 q 29 1081 56 1054 q 3 1143 3 1107 z "},"ñ":{"ha":869,"x_min":83,"x_max":786,"o":"m 83 933 q 94 964 83 953 q 125 975 106 975 l 222 975 q 243 969 233 975 q 258 954 253 964 l 625 313 l 625 810 l 418 810 q 388 821 399 810 q 376 851 376 832 l 376 933 q 388 964 376 953 q 418 975 399 975 l 744 975 q 775 964 764 975 q 786 933 786 953 l 786 42 q 775 11 786 22 q 744 0 764 0 l 649 0 q 611 21 625 0 l 246 671 l 246 42 q 235 11 246 22 q 204 0 224 0 l 125 0 q 94 11 106 0 q 83 42 83 22 l 83 933 m 261 1078 q 267 1132 261 1108 q 283 1182 271 1158 q 368 1233 308 1233 q 424 1219 397 1233 q 475 1190 451 1206 l 492 1185 l 496 1196 l 499 1213 l 499 1224 l 499 1229 l 500 1233 q 507 1239 500 1239 l 596 1239 q 608 1226 608 1239 l 608 1214 q 608 1191 608 1203 q 606 1165 607 1179 q 590 1115 601 1140 q 499 1060 561 1060 q 456 1068 474 1060 l 421 1085 q 418 1088 421 1085 l 406 1096 l 379 1108 l 374 1088 l 372 1064 l 372 1058 q 365 1051 369 1051 l 275 1051 q 261 1065 261 1051 l 261 1078 z "},"ó":{"ha":1069,"x_min":28,"x_max":1042,"o":"m 535 -14 q 340 26 432 -14 q 179 133 249 65 q 69 292 110 200 q 28 488 28 383 q 68 683 28 592 q 177 842 108 774 q 338 949 246 910 q 535 989 431 989 q 730 950 638 989 q 892 843 822 911 q 1001 684 961 775 q 1042 488 1042 593 q 1001 293 1042 385 q 892 133 961 201 q 731 26 822 65 q 535 -14 639 -14 m 225 615 q 199 488 199 557 q 224 362 199 422 q 295 256 250 301 q 402 182 340 210 q 535 154 464 154 q 668 181 607 154 q 774 254 729 208 q 845 360 819 300 q 871 488 871 421 q 846 615 871 554 q 776 721 821 675 q 669 794 731 767 q 535 821 607 821 q 432 806 481 821 q 344 763 383 790 q 274 697 304 735 q 225 615 243 660 m 442 1051 q 402 1067 411 1051 q 408 1110 393 1083 l 496 1263 q 532 1283 510 1283 l 607 1283 q 655 1265 646 1283 q 639 1215 664 1247 l 521 1067 q 489 1051 508 1051 l 442 1051 m 540 408 q 483 431 508 408 q 457 488 457 454 q 481 545 457 522 q 540 568 506 568 q 599 546 576 568 q 622 488 622 524 q 599 430 622 451 q 540 408 575 408 z "},"ò":{"ha":1069,"x_min":28,"x_max":1042,"o":"m 535 -14 q 340 26 432 -14 q 179 133 249 65 q 69 292 110 200 q 28 488 28 383 q 68 683 28 592 q 177 842 108 774 q 338 949 246 910 q 535 989 431 989 q 730 950 638 989 q 892 843 822 911 q 1001 684 961 775 q 1042 488 1042 593 q 1001 293 1042 385 q 892 133 961 201 q 731 26 822 65 q 535 -14 639 -14 m 225 615 q 199 488 199 557 q 224 362 199 422 q 295 256 250 301 q 402 182 340 210 q 535 154 464 154 q 668 181 607 154 q 774 254 729 208 q 845 360 819 300 q 871 488 871 421 q 846 615 871 554 q 776 721 821 675 q 669 794 731 767 q 535 821 607 821 q 432 806 481 821 q 344 763 383 790 q 274 697 304 735 q 225 615 243 660 m 429 1215 q 414 1265 406 1247 q 461 1283 422 1283 l 538 1283 q 558 1278 549 1283 q 574 1263 568 1272 l 660 1110 q 666 1067 675 1083 q 626 1051 657 1051 l 581 1051 q 547 1067 560 1051 l 429 1215 m 540 408 q 483 431 508 408 q 457 488 457 454 q 481 545 457 522 q 540 568 506 568 q 599 546 576 568 q 622 488 622 524 q 599 430 622 451 q 540 408 575 408 z "},"ô":{"ha":1069,"x_min":28,"x_max":1042,"o":"m 28 488 q 68 683 28 592 q 177 842 108 774 q 338 949 246 910 q 535 989 431 989 q 730 950 638 989 q 892 843 822 911 q 1001 684 961 775 q 1042 488 1042 593 q 1001 293 1042 385 q 892 133 961 201 q 731 26 822 65 q 535 -14 639 -14 q 340 26 432 -14 q 179 133 249 65 q 69 292 110 200 q 28 488 28 383 m 225 615 q 199 488 199 557 q 224 362 199 422 q 295 256 250 301 q 402 182 340 210 q 535 154 464 154 q 668 181 607 154 q 774 254 729 208 q 845 360 819 300 q 871 488 871 421 q 846 615 871 554 q 776 721 821 675 q 669 794 731 767 q 535 821 607 821 q 432 806 481 821 q 344 763 383 790 q 274 697 304 735 q 225 615 243 660 m 410 1051 q 369 1067 378 1051 q 376 1111 360 1083 l 469 1264 q 506 1283 483 1283 l 561 1283 q 597 1264 585 1283 l 692 1113 q 700 1068 710 1085 q 658 1051 690 1051 l 610 1051 q 574 1072 588 1051 l 532 1146 l 492 1072 q 454 1051 478 1051 l 410 1051 m 457 488 q 481 545 457 522 q 540 568 506 568 q 599 546 576 568 q 622 488 622 524 q 599 430 622 451 q 540 408 575 408 q 483 431 508 408 q 457 488 457 454 z "},"ö":{"ha":1069,"x_min":28,"x_max":1042,"o":"m 535 -14 q 340 26 432 -14 q 179 133 249 65 q 69 292 110 200 q 28 488 28 383 q 68 683 28 592 q 177 842 108 774 q 338 949 246 910 q 535 989 431 989 q 730 950 638 989 q 892 843 822 911 q 1001 684 961 775 q 1042 488 1042 593 q 1001 293 1042 385 q 892 133 961 201 q 731 26 822 65 q 535 -14 639 -14 m 225 615 q 199 488 199 557 q 224 362 199 422 q 295 256 250 301 q 402 182 340 210 q 535 154 464 154 q 668 181 607 154 q 774 254 729 208 q 845 360 819 300 q 871 488 871 421 q 846 615 871 554 q 776 721 821 675 q 669 794 731 767 q 535 821 607 821 q 432 806 481 821 q 344 763 383 790 q 274 697 304 735 q 225 615 243 660 m 372 1143 q 398 1206 372 1179 q 461 1233 424 1233 q 505 1221 488 1233 q 535 1186 522 1208 q 567 1220 546 1207 q 611 1233 588 1233 q 672 1206 649 1233 q 696 1143 696 1179 q 672 1081 696 1107 q 611 1054 647 1054 q 567 1067 588 1054 q 535 1101 546 1081 q 505 1067 524 1081 q 461 1054 486 1054 q 399 1081 425 1054 q 372 1143 372 1107 m 540 408 q 483 431 508 408 q 457 488 457 454 q 481 545 457 522 q 540 568 506 568 q 599 546 576 568 q 622 488 622 524 q 599 430 622 451 q 540 408 575 408 z "},"õ":{"ha":1069,"x_min":28,"x_max":1042,"o":"m 28 488 q 68 683 28 592 q 177 842 108 774 q 338 949 246 910 q 535 989 431 989 q 730 950 638 989 q 892 843 822 911 q 1001 684 961 775 q 1042 488 1042 593 q 1001 293 1042 385 q 892 133 961 201 q 731 26 822 65 q 535 -14 639 -14 q 340 26 432 -14 q 179 133 249 65 q 69 292 110 200 q 28 488 28 383 m 199 488 q 224 362 199 422 q 295 256 250 301 q 402 182 340 210 q 535 154 464 154 q 668 181 607 154 q 774 254 729 208 q 845 360 819 300 q 871 488 871 421 q 846 615 871 554 q 776 721 821 675 q 669 794 731 767 q 535 821 607 821 q 401 794 463 821 q 295 721 340 767 q 224 615 250 675 q 199 488 199 554 m 361 1078 q 367 1132 361 1108 q 383 1182 371 1158 q 468 1233 408 1233 q 524 1219 497 1233 q 575 1190 551 1206 l 592 1185 l 596 1196 l 599 1213 l 599 1224 l 599 1229 l 600 1233 q 607 1239 600 1239 l 696 1239 q 708 1226 708 1239 l 708 1214 q 708 1191 708 1203 q 706 1165 707 1179 q 690 1115 701 1140 q 599 1060 661 1060 q 556 1068 574 1060 l 521 1085 q 518 1088 521 1085 l 506 1096 l 479 1108 l 474 1088 l 472 1064 l 472 1058 q 465 1051 469 1051 l 375 1051 q 361 1065 361 1051 l 361 1078 m 457 488 q 481 545 457 522 q 540 568 506 568 q 599 546 576 568 q 622 488 622 524 q 599 430 622 451 q 540 408 575 408 q 483 431 508 408 q 457 488 457 454 z "},"ú":{"ha":869,"x_min":83,"x_max":786,"o":"m 83 933 q 94 964 83 953 q 125 975 106 975 l 204 975 q 235 964 224 975 q 246 933 246 953 l 246 372 q 260 297 246 331 q 326 203 279 239 q 436 167 374 167 q 511 184 476 167 q 571 231 546 201 q 610 297 596 260 q 625 372 625 333 l 625 933 q 636 964 625 953 q 667 975 647 975 l 744 975 q 775 964 764 975 q 786 933 786 953 l 786 372 q 760 233 786 300 q 687 114 733 165 q 576 31 640 63 q 436 0 511 0 q 297 31 361 0 q 185 113 232 61 q 110 231 138 164 q 83 372 83 299 l 83 933 m 342 1051 q 302 1067 311 1051 q 308 1110 293 1083 l 396 1263 q 432 1283 410 1283 l 507 1283 q 555 1265 546 1283 q 539 1215 564 1247 l 421 1067 q 389 1051 408 1051 l 342 1051 z "},"ù":{"ha":869,"x_min":83,"x_max":786,"o":"m 83 933 q 94 964 83 953 q 125 975 106 975 l 204 975 q 235 964 224 975 q 246 933 246 953 l 246 372 q 260 297 246 331 q 326 203 279 239 q 436 167 374 167 q 511 184 476 167 q 571 231 546 201 q 610 297 596 260 q 625 372 625 333 l 625 933 q 636 964 625 953 q 667 975 647 975 l 744 975 q 775 964 764 975 q 786 933 786 953 l 786 372 q 760 233 786 300 q 687 114 733 165 q 576 31 640 63 q 436 0 511 0 q 297 31 361 0 q 185 113 232 61 q 110 231 138 164 q 83 372 83 299 l 83 933 m 329 1215 q 314 1265 306 1247 q 361 1283 322 1283 l 438 1283 q 458 1278 449 1283 q 474 1263 468 1272 l 560 1110 q 566 1067 575 1083 q 526 1051 557 1051 l 481 1051 q 447 1067 460 1051 l 329 1215 z "},"û":{"ha":869,"x_min":83,"x_max":786,"o":"m 83 933 q 94 964 83 953 q 125 975 106 975 l 204 975 q 235 964 224 975 q 246 933 246 953 l 246 372 q 260 297 246 331 q 326 203 279 239 q 436 167 374 167 q 511 184 476 167 q 571 231 546 201 q 610 297 596 260 q 625 372 625 333 l 625 933 q 636 964 625 953 q 667 975 647 975 l 744 975 q 775 964 764 975 q 786 933 786 953 l 786 372 q 760 233 786 300 q 687 114 733 165 q 576 31 640 63 q 436 0 511 0 q 297 31 361 0 q 185 113 232 61 q 110 231 138 164 q 83 372 83 299 l 83 933 m 310 1051 q 269 1067 278 1051 q 276 1111 260 1083 l 369 1264 q 406 1283 383 1283 l 461 1283 q 497 1264 485 1283 l 592 1113 q 600 1068 610 1085 q 558 1051 590 1051 l 510 1051 q 474 1072 488 1051 l 432 1146 l 392 1072 q 354 1051 378 1051 l 310 1051 z "},"ü":{"ha":869,"x_min":83,"x_max":786,"o":"m 436 0 q 297 31 361 0 q 185 113 232 61 q 110 231 138 164 q 83 372 83 299 l 83 933 q 94 964 83 953 q 125 975 106 975 l 204 975 q 235 964 224 975 q 246 933 246 953 l 246 372 q 260 297 246 331 q 326 203 279 239 q 436 167 374 167 q 511 184 476 167 q 571 231 546 201 q 610 297 596 260 q 625 372 625 333 l 625 933 q 636 964 625 953 q 667 975 647 975 l 744 975 q 775 964 764 975 q 786 933 786 953 l 786 372 q 760 233 786 300 q 687 114 733 165 q 576 31 640 63 q 436 0 511 0 m 272 1143 q 298 1206 272 1179 q 361 1233 324 1233 q 405 1221 388 1233 q 435 1186 422 1208 q 467 1220 446 1207 q 511 1233 488 1233 q 572 1206 549 1233 q 596 1143 596 1179 q 572 1081 596 1107 q 511 1054 547 1054 q 467 1067 488 1054 q 435 1101 446 1081 q 405 1067 424 1081 q 361 1054 386 1054 q 299 1081 325 1054 q 272 1143 272 1107 z "},"†":{"ha":444,"x_min":-1,"x_max":447,"o":"m 40 397 q 10 408 21 397 q -1 439 -1 419 l -1 511 q 10 542 -1 531 q 40 553 21 553 l 156 553 l 156 1000 q 167 1031 156 1019 q 197 1042 178 1042 l 247 1042 q 278 1031 267 1042 q 289 1000 289 1019 l 289 553 l 406 553 q 436 542 425 553 q 447 511 447 531 l 447 439 q 436 408 447 419 q 406 397 425 397 l 289 397 l 289 -67 q 278 -97 289 -86 q 247 -108 267 -108 l 197 -108 q 167 -97 178 -108 q 156 -67 156 -86 l 156 397 l 40 397 l 40 397 z "},"¢":{"ha":1000,"x_min":28,"x_max":972,"o":"m 433 -10 q 270 51 344 4 q 142 165 196 97 q 58 316 88 232 q 28 488 28 400 q 58 658 28 575 q 142 810 88 742 q 270 924 196 878 q 433 985 344 971 l 433 1000 q 444 1031 433 1019 q 475 1042 456 1042 l 525 1042 q 556 1031 544 1042 q 567 1000 567 1019 l 567 161 q 667 207 622 175 q 743 282 711 239 q 792 378 775 325 q 810 488 810 431 l 810 500 q 822 513 810 513 l 960 513 q 972 500 972 513 l 972 488 q 943 315 972 399 q 860 164 914 232 q 733 50 807 96 q 567 -10 658 4 l 567 -67 q 556 -97 567 -86 q 525 -108 544 -108 l 475 -108 q 444 -97 456 -108 q 433 -67 433 -86 l 433 -10 m 433 814 q 333 767 378 799 q 257 693 289 736 q 208 597 225 650 q 190 488 190 544 q 208 378 190 431 q 257 283 225 326 q 333 207 289 239 q 433 161 378 175 l 433 814 z "},"Æ":{"ha":1481,"x_min":26,"x_max":1447,"o":"m 76 0 q 38 16 49 0 q 38 57 26 32 l 403 949 q 442 975 414 975 l 531 975 q 569 949 558 975 l 792 406 l 792 933 q 803 964 792 953 q 833 975 814 975 l 1406 975 q 1436 964 1425 975 q 1447 933 1447 953 l 1447 851 q 1436 821 1447 832 q 1406 810 1425 810 l 954 810 l 954 629 l 1297 629 q 1328 618 1317 629 q 1339 588 1339 607 l 1339 504 q 1328 474 1339 485 q 1297 463 1317 463 l 954 463 l 954 167 l 1406 167 q 1436 156 1425 167 q 1447 125 1447 144 l 1447 42 q 1436 11 1447 22 q 1406 0 1425 0 l 788 0 q 782 4 782 0 l 779 8 q 703 186 740 97 q 632 365 667 275 q 560 543 596 454 q 486 722 524 632 q 431 583 458 651 q 375 444 403 514 q 319 306 347 374 q 260 167 290 238 l 624 167 q 663 140 651 167 l 696 57 q 696 16 707 32 q 657 0 685 0 l 76 0 l 76 0 z "},"Ø":{"ha":1069,"x_min":28,"x_max":1042,"o":"m 581 818 q 558 820 569 819 q 535 821 546 821 q 404 795 465 821 q 297 724 343 769 q 225 618 251 679 q 199 488 199 557 q 240 328 199 403 q 353 208 282 254 l 457 488 q 483 431 457 454 q 540 408 508 408 q 600 433 576 408 l 497 156 q 516 154 507 154 q 535 154 525 154 q 664 180 603 154 q 771 251 725 206 q 844 357 817 296 q 871 488 871 418 q 776 721 871 622 q 751 743 764 732 q 724 764 739 754 l 622 492 q 600 544 621 521 q 540 568 576 568 q 481 544 504 568 q 476 539 479 542 l 581 818 m 457 488 q 476 539 457 515 l 457 488 m 785 924 q 891 844 843 890 q 972 741 939 797 q 1024 620 1006 685 q 1042 488 1042 556 q 1001 293 1042 385 q 892 133 961 201 q 731 26 822 65 q 535 -14 639 -14 q 485 -12 510 -14 q 436 -4 460 -10 l 415 -61 q 376 -87 406 -87 l 301 -87 q 263 -72 274 -87 q 263 -32 253 -57 l 293 49 q 184 126 233 79 q 100 231 135 174 q 47 354 65 289 q 28 488 28 419 q 68 683 28 592 q 177 842 108 774 q 338 949 246 910 q 535 989 431 989 q 640 978 588 989 l 671 1058 q 710 1085 681 1085 l 785 1085 q 823 1069 813 1085 q 824 1029 833 1054 l 785 924 m 622 492 q 617 460 622 474 q 600 433 613 446 l 622 492 z "},"æ":{"ha":1472,"x_min":26,"x_max":1447,"o":"m 76 0 q 38 16 49 0 q 38 57 26 32 l 403 949 q 442 975 414 975 l 531 975 q 569 949 558 975 l 792 406 l 792 933 q 803 964 792 953 q 833 975 814 975 l 1406 975 q 1436 964 1425 975 q 1447 933 1447 953 l 1447 851 q 1436 821 1447 832 q 1406 810 1425 810 l 954 810 l 954 629 l 1297 629 q 1328 618 1317 629 q 1339 588 1339 607 l 1339 504 q 1328 474 1339 485 q 1297 463 1317 463 l 954 463 l 954 167 l 1406 167 q 1436 156 1425 167 q 1447 125 1447 144 l 1447 42 q 1436 11 1447 22 q 1406 0 1425 0 l 810 0 q 787 8 797 0 q 771 26 776 15 l 486 722 l 260 167 l 624 167 q 663 140 651 167 l 696 57 q 696 16 707 32 q 657 0 685 0 l 76 0 l 76 0 z "},"ø":{"ha":1069,"x_min":28,"x_max":1042,"o":"m 582 818 q 559 820 571 819 q 535 821 547 821 q 404 795 465 821 q 297 724 343 769 q 225 618 251 679 q 199 488 199 557 q 210 405 199 446 q 242 328 221 364 q 291 261 263 292 q 354 208 319 231 l 457 483 q 484 430 460 451 q 540 408 508 408 q 555 410 544 408 q 576 417 565 413 q 594 426 586 421 q 603 436 603 431 l 499 156 q 516 154 507 154 q 535 154 525 154 q 664 180 603 154 q 771 251 725 206 q 844 357 817 296 q 871 488 871 418 q 776 721 871 622 q 751 742 764 732 q 725 763 739 753 l 622 486 q 599 545 622 522 q 540 568 576 568 q 479 543 504 568 l 582 818 m 457 483 q 462 515 457 501 q 479 543 467 529 l 457 483 m 786 924 q 892 843 844 890 q 972 740 939 796 q 1024 619 1006 683 q 1042 488 1042 556 q 1001 293 1042 385 q 892 133 961 201 q 731 26 822 65 q 535 -14 639 -14 q 438 -6 485 -14 l 414 -69 q 375 -96 404 -96 l 300 -96 q 262 -81 272 -96 q 261 -40 251 -65 l 294 47 q 185 127 233 81 q 101 231 136 174 q 47 353 65 288 q 28 488 28 418 q 68 683 28 592 q 177 842 108 774 q 338 949 246 910 q 535 989 431 989 q 642 978 589 989 l 669 1050 q 708 1076 679 1076 l 783 1076 q 822 1061 811 1076 q 822 1021 832 1046 l 786 924 m 622 486 q 603 436 622 460 l 622 486 z "},"À":{"ha":972,"x_min":26,"x_max":946,"o":"m 76 0 q 38 16 49 0 q 38 57 26 32 l 403 949 q 442 975 414 975 l 531 975 q 569 949 558 975 l 935 57 q 935 16 946 32 q 896 0 924 0 l 788 0 q 782 4 782 0 l 779 8 q 703 186 740 97 q 632 365 667 275 q 560 543 596 454 q 486 722 524 632 q 431 583 458 651 q 375 444 403 514 q 319 306 347 374 q 260 167 290 238 l 624 167 q 663 140 651 167 l 696 57 q 696 16 707 32 q 657 0 685 0 l 76 0 m 381 1215 q 365 1265 357 1247 q 413 1283 374 1283 l 489 1283 q 510 1278 500 1283 q 525 1263 519 1272 l 611 1110 q 617 1067 626 1083 q 578 1051 608 1051 l 532 1051 q 499 1067 511 1051 l 381 1215 z "},"Ã":{"ha":972,"x_min":26,"x_max":946,"o":"m 76 0 q 38 16 49 0 q 38 57 26 32 l 403 949 q 442 975 414 975 l 531 975 q 569 949 558 975 l 935 57 q 935 16 946 32 q 896 0 924 0 l 788 0 q 782 4 782 0 l 779 8 q 703 186 740 97 q 632 365 667 275 q 560 543 596 454 q 486 722 524 632 q 431 583 458 651 q 375 444 403 514 q 319 306 347 374 q 260 167 290 238 l 624 167 q 663 140 651 167 l 696 57 q 696 16 707 32 q 657 0 685 0 l 76 0 m 313 1078 q 318 1132 313 1108 q 335 1182 322 1158 q 419 1233 360 1233 q 476 1219 449 1233 q 526 1190 503 1206 l 543 1185 l 547 1196 l 550 1213 l 550 1224 l 550 1229 l 551 1233 q 558 1239 551 1239 l 647 1239 q 660 1226 660 1239 l 660 1214 q 659 1191 660 1203 q 657 1165 658 1179 q 642 1115 653 1140 q 550 1060 613 1060 q 507 1068 525 1060 l 472 1085 q 469 1088 472 1085 l 457 1096 l 431 1108 l 425 1088 l 424 1064 l 424 1058 q 417 1051 421 1051 l 326 1051 q 313 1065 313 1051 l 313 1078 z "},"Õ":{"ha":1069,"x_min":28,"x_max":1042,"o":"m 28 488 q 68 683 28 592 q 177 842 108 774 q 338 949 246 910 q 535 989 431 989 q 730 950 638 989 q 892 843 822 911 q 1001 684 961 775 q 1042 488 1042 593 q 1001 293 1042 385 q 892 133 961 201 q 731 26 822 65 q 535 -14 639 -14 q 340 26 432 -14 q 179 133 249 65 q 69 292 110 200 q 28 488 28 383 m 199 488 q 224 362 199 422 q 295 256 250 301 q 402 182 340 210 q 535 154 464 154 q 668 181 607 154 q 774 254 729 208 q 845 360 819 300 q 871 488 871 421 q 846 615 871 554 q 776 721 821 675 q 669 794 731 767 q 535 821 607 821 q 401 794 463 821 q 295 721 340 767 q 224 615 250 675 q 199 488 199 554 m 361 1078 q 367 1132 361 1108 q 383 1182 371 1158 q 468 1233 408 1233 q 524 1219 497 1233 q 575 1190 551 1206 l 592 1185 l 596 1196 l 599 1213 l 599 1224 l 599 1229 l 600 1233 q 607 1239 600 1239 l 696 1239 q 708 1226 708 1239 l 708 1214 q 708 1191 708 1203 q 706 1165 707 1179 q 690 1115 701 1140 q 599 1060 661 1060 q 556 1068 574 1060 l 521 1085 q 518 1088 521 1085 l 506 1096 l 479 1108 l 474 1088 l 472 1064 l 472 1058 q 465 1051 469 1051 l 375 1051 q 361 1065 361 1051 l 361 1078 m 457 488 q 481 545 457 522 q 540 568 506 568 q 599 546 576 568 q 622 488 622 524 q 599 430 622 451 q 540 408 575 408 q 483 431 508 408 q 457 488 457 454 z "},"Œ":{"ha":1560,"x_min":28,"x_max":1538,"o":"m 535 -14 q 340 26 432 -14 q 179 133 249 65 q 69 292 110 200 q 28 488 28 383 q 68 683 28 592 q 177 842 108 774 q 338 949 246 910 q 535 989 431 989 q 722 954 633 989 q 882 853 810 919 l 882 933 q 893 964 882 953 q 924 975 904 975 l 1496 975 q 1526 964 1515 975 q 1538 933 1538 953 l 1538 851 q 1526 821 1538 832 q 1496 810 1515 810 l 1044 810 l 1044 629 l 1388 629 q 1418 618 1407 629 q 1429 588 1429 607 l 1429 504 q 1418 474 1429 485 q 1388 463 1407 463 l 1044 463 l 1044 167 l 1496 167 q 1526 156 1515 167 q 1538 125 1538 144 l 1538 42 q 1526 11 1538 22 q 1496 0 1515 0 l 924 0 q 893 11 904 0 q 882 42 882 22 l 882 124 q 722 22 811 57 q 535 -14 632 -14 m 199 488 q 224 362 199 422 q 295 256 250 301 q 402 182 340 210 q 535 154 464 154 q 668 181 607 154 q 774 254 729 208 q 845 360 819 300 q 871 488 871 421 q 846 615 871 554 q 776 721 821 675 q 669 794 731 767 q 535 821 607 821 q 401 794 463 821 q 295 721 340 767 q 224 615 250 675 q 199 488 199 554 m 540 408 q 483 431 508 408 q 457 488 457 454 q 481 545 457 522 q 540 568 506 568 q 599 546 576 568 q 622 488 622 524 q 599 430 622 451 q 540 408 575 408 z "},"œ":{"ha":1572,"x_min":28,"x_max":1544,"o":"m 535 -14 q 340 26 432 -14 q 179 133 249 65 q 69 292 110 200 q 28 488 28 383 q 68 683 28 592 q 177 842 108 774 q 338 949 246 910 q 535 989 431 989 q 726 953 636 989 q 889 846 815 917 l 889 933 q 900 964 889 953 q 931 975 911 975 l 1503 975 q 1533 964 1522 975 q 1544 933 1544 953 l 1544 851 q 1533 821 1544 832 q 1503 810 1522 810 l 1051 810 l 1051 629 l 1394 629 q 1425 618 1414 629 q 1436 588 1436 607 l 1436 504 q 1425 474 1436 485 q 1394 463 1414 463 l 1051 463 l 1051 167 l 1503 167 q 1533 156 1522 167 q 1544 125 1544 144 l 1544 42 q 1533 11 1544 22 q 1503 0 1522 0 l 931 0 q 900 11 911 0 q 889 42 889 22 l 889 131 q 726 23 818 60 q 535 -14 633 -14 m 199 488 q 224 362 199 422 q 295 256 250 301 q 402 182 340 210 q 535 154 464 154 q 668 181 607 154 q 774 254 729 208 q 845 360 819 300 q 871 488 871 421 q 846 615 871 554 q 776 721 821 675 q 669 794 731 767 q 535 821 607 821 q 401 794 463 821 q 295 721 340 767 q 224 615 250 675 q 199 488 199 554 m 540 408 q 483 431 508 408 q 457 488 457 454 q 481 545 457 522 q 540 568 506 568 q 599 546 576 568 q 622 488 622 524 q 599 430 622 451 q 540 408 575 408 z "},"ÿ":{"ha":919,"x_min":38,"x_max":882,"o":"m 57 911 q 47 957 38 939 q 92 975 56 975 l 189 975 q 224 957 213 975 l 460 597 l 599 810 l 404 810 q 369 828 381 810 l 315 910 q 305 957 296 939 q 350 975 314 975 l 828 975 q 873 957 864 975 q 863 911 882 939 l 542 422 l 542 42 q 531 11 542 22 q 500 0 519 0 l 419 0 q 389 11 400 0 q 378 42 378 22 l 378 422 l 57 911 m 297 1143 q 323 1206 297 1179 q 386 1233 349 1233 q 430 1221 413 1233 q 460 1186 447 1208 q 492 1220 471 1207 q 536 1233 513 1233 q 597 1206 574 1233 q 621 1143 621 1179 q 597 1081 621 1107 q 536 1054 572 1054 q 492 1067 513 1054 q 460 1101 471 1081 q 430 1067 449 1081 q 386 1054 411 1054 q 324 1081 350 1054 q 297 1143 297 1107 z "},"Ÿ":{"ha":919,"x_min":38,"x_max":882,"o":"m 57 911 q 47 957 38 939 q 92 975 56 975 l 189 975 q 224 957 213 975 l 460 597 l 599 810 l 404 810 q 369 828 381 810 l 315 910 q 305 957 296 939 q 350 975 314 975 l 828 975 q 873 957 864 975 q 863 911 882 939 l 542 422 l 542 42 q 531 11 542 22 q 500 0 519 0 l 419 0 q 389 11 400 0 q 378 42 378 22 l 378 422 l 57 911 m 297 1143 q 323 1206 297 1179 q 386 1233 349 1233 q 430 1221 413 1233 q 460 1186 447 1208 q 492 1220 471 1207 q 536 1233 513 1233 q 597 1206 574 1233 q 621 1143 621 1179 q 597 1081 621 1107 q 536 1054 572 1054 q 492 1067 513 1054 q 460 1101 471 1081 q 430 1067 449 1081 q 386 1054 411 1054 q 324 1081 350 1054 q 297 1143 297 1107 z "},"€":{"ha":799,"x_min":83,"x_max":715,"o":"m 83 642 q 107 767 83 707 q 172 874 131 828 q 272 947 214 919 q 399 975 329 975 q 524 948 467 975 q 624 875 582 921 q 691 769 667 829 q 715 642 715 708 l 715 333 q 692 208 715 268 q 626 101 668 147 q 525 28 583 56 q 399 0 467 0 q 273 27 331 0 q 173 100 215 54 q 107 206 131 146 q 83 333 83 267 l 83 642 m 551 386 l 551 333 q 543 280 551 306 q 519 231 535 254 l 624 231 l 624 386 l 551 386 m 175 386 l 175 231 l 278 231 q 254 280 263 254 q 246 333 246 306 l 246 386 l 175 386 m 624 475 l 624 632 l 551 632 l 551 475 l 624 475 m 246 475 l 246 632 l 175 632 l 175 475 l 246 475 z "},"ﬁ":{"ha":1074,"x_min":83,"x_max":990,"o":"m 83 933 q 94 964 83 953 q 125 975 106 975 l 697 975 q 728 964 717 975 q 739 933 739 953 l 739 851 q 728 821 739 832 q 697 810 717 810 l 246 810 l 246 629 l 589 629 q 619 618 608 629 q 631 588 631 607 l 631 504 q 619 474 631 485 q 589 463 608 463 l 246 463 l 246 42 q 235 11 246 22 q 204 0 224 0 l 125 0 q 94 11 106 0 q 83 42 83 22 l 83 933 m 828 933 q 839 964 828 953 q 869 975 850 975 l 949 975 q 979 964 968 975 q 990 933 990 953 l 990 42 q 979 11 990 22 q 949 0 968 0 l 869 0 q 839 11 850 0 q 828 42 828 22 l 828 933 z "},"ﬂ":{"ha":1504,"x_min":83,"x_max":1490,"o":"m 83 933 q 94 964 83 953 q 125 975 106 975 l 697 975 q 728 964 717 975 q 739 933 739 953 l 739 851 q 728 821 739 832 q 697 810 717 810 l 246 810 l 246 629 l 589 629 q 619 618 608 629 q 631 588 631 607 l 631 504 q 619 474 631 485 q 589 463 608 463 l 246 463 l 246 42 q 235 11 246 22 q 204 0 224 0 l 125 0 q 94 11 106 0 q 83 42 83 22 l 83 933 m 876 0 q 846 11 857 0 q 835 42 835 22 l 835 933 q 846 964 835 953 q 876 975 857 975 l 956 975 q 986 964 975 975 q 997 933 997 953 l 997 167 l 1449 167 q 1479 156 1468 167 q 1490 125 1490 144 l 1490 42 q 1479 11 1490 22 q 1449 0 1468 0 l 876 0 z "},"Â":{"ha":972,"x_min":26,"x_max":946,"o":"m 76 0 q 38 16 49 0 q 38 57 26 32 l 403 949 q 442 975 414 975 l 531 975 q 569 949 558 975 l 935 57 q 935 16 946 32 q 896 0 924 0 l 788 0 q 782 4 782 0 l 779 8 q 703 186 740 97 q 632 365 667 275 q 560 543 596 454 q 486 722 524 632 q 431 583 458 651 q 375 444 403 514 q 319 306 347 374 q 260 167 290 238 l 624 167 q 663 140 651 167 l 696 57 q 696 16 707 32 q 657 0 685 0 l 76 0 m 361 1051 q 320 1067 329 1051 q 328 1111 311 1083 l 421 1264 q 457 1283 435 1283 l 513 1283 q 549 1264 536 1283 l 643 1113 q 651 1068 661 1085 q 610 1051 642 1051 l 561 1051 q 525 1072 539 1051 l 483 1146 l 443 1072 q 406 1051 429 1051 l 361 1051 z "},"Ê":{"ha":781,"x_min":83,"x_max":739,"o":"m 83 933 q 94 964 83 953 q 125 975 106 975 l 697 975 q 728 964 717 975 q 739 933 739 953 l 739 851 q 728 821 739 832 q 697 810 717 810 l 246 810 l 246 629 l 589 629 q 619 618 608 629 q 631 588 631 607 l 631 504 q 619 474 631 485 q 589 463 608 463 l 246 463 l 246 167 l 697 167 q 728 156 717 167 q 739 125 739 144 l 739 42 q 728 11 739 22 q 697 0 717 0 l 125 0 q 94 11 106 0 q 83 42 83 22 l 83 933 m 265 1051 q 224 1067 233 1051 q 232 1111 215 1083 l 325 1264 q 361 1283 339 1283 l 417 1283 q 453 1264 440 1283 l 547 1113 q 556 1068 565 1085 q 514 1051 546 1051 l 465 1051 q 429 1072 443 1051 l 388 1146 l 347 1072 q 310 1051 333 1051 l 265 1051 z "},"Á":{"ha":972,"x_min":26,"x_max":946,"o":"m 76 0 q 38 16 49 0 q 38 57 26 32 l 403 949 q 442 975 414 975 l 531 975 q 569 949 558 975 l 935 57 q 935 16 946 32 q 896 0 924 0 l 788 0 q 782 4 782 0 l 779 8 q 703 186 740 97 q 632 365 667 275 q 560 543 596 454 q 486 722 524 632 q 431 583 458 651 q 375 444 403 514 q 319 306 347 374 q 260 167 290 238 l 624 167 q 663 140 651 167 l 696 57 q 696 16 707 32 q 657 0 685 0 l 76 0 m 393 1051 q 353 1067 363 1051 q 360 1110 344 1083 l 447 1263 q 483 1283 461 1283 l 558 1283 q 606 1265 597 1283 q 590 1215 615 1247 l 472 1067 q 440 1051 460 1051 l 393 1051 z "},"Ë":{"ha":781,"x_min":83,"x_max":739,"o":"m 83 933 q 94 964 83 953 q 125 975 106 975 l 697 975 q 728 964 717 975 q 739 933 739 953 l 739 851 q 728 821 739 832 q 697 810 717 810 l 246 810 l 246 629 l 589 629 q 619 618 608 629 q 631 588 631 607 l 631 504 q 619 474 631 485 q 589 463 608 463 l 246 463 l 246 167 l 697 167 q 728 156 717 167 q 739 125 739 144 l 739 42 q 728 11 739 22 q 697 0 717 0 l 125 0 q 94 11 106 0 q 83 42 83 22 l 83 933 m 317 1054 q 254 1081 281 1054 q 228 1143 228 1107 q 253 1206 228 1179 q 317 1233 279 1233 q 360 1221 343 1233 q 390 1186 378 1208 q 422 1220 401 1207 q 467 1233 443 1233 q 528 1206 504 1233 q 551 1143 551 1179 q 527 1081 551 1107 q 467 1054 503 1054 q 422 1067 443 1054 q 390 1101 401 1081 q 360 1067 379 1081 q 317 1054 342 1054 z "},"È":{"ha":781,"x_min":83,"x_max":739,"o":"m 83 933 q 94 964 83 953 q 125 975 106 975 l 697 975 q 728 964 717 975 q 739 933 739 953 l 739 851 q 728 821 739 832 q 697 810 717 810 l 246 810 l 246 629 l 589 629 q 619 618 608 629 q 631 588 631 607 l 631 504 q 619 474 631 485 q 589 463 608 463 l 246 463 l 246 167 l 697 167 q 728 156 717 167 q 739 125 739 144 l 739 42 q 728 11 739 22 q 697 0 717 0 l 125 0 q 94 11 106 0 q 83 42 83 22 l 83 933 m 285 1215 q 269 1265 261 1247 q 317 1283 278 1283 l 393 1283 q 414 1278 404 1283 q 429 1263 424 1272 l 515 1110 q 522 1067 531 1083 q 482 1051 513 1051 l 436 1051 q 403 1067 415 1051 l 285 1215 z "},"Í":{"ha":329,"x_min":24,"x_max":294,"o":"m 83 933 q 94 964 83 953 q 125 975 106 975 l 204 975 q 235 964 224 975 q 246 933 246 953 l 246 42 q 235 11 246 22 q 204 0 224 0 l 125 0 q 94 11 106 0 q 83 42 83 22 l 83 933 m 72 1051 q 33 1067 42 1051 q 39 1110 24 1083 l 126 1263 q 163 1283 140 1283 l 238 1283 q 285 1265 276 1283 q 269 1215 294 1247 l 151 1067 q 119 1051 139 1051 l 72 1051 z "},"Î":{"ha":329,"x_min":-10,"x_max":340,"o":"m 125 0 q 94 11 106 0 q 83 42 83 22 l 83 933 q 94 964 83 953 q 125 975 106 975 l 204 975 q 235 964 224 975 q 246 933 246 953 l 246 42 q 235 11 246 22 q 204 0 224 0 l 125 0 m 40 1051 q -1 1067 8 1051 q 7 1111 -10 1083 l 100 1264 q 136 1283 114 1283 l 192 1283 q 228 1264 215 1283 l 322 1113 q 331 1068 340 1085 q 289 1051 321 1051 l 240 1051 q 204 1072 218 1051 l 163 1146 l 122 1072 q 85 1051 108 1051 l 40 1051 z "},"Ï":{"ha":329,"x_min":3,"x_max":326,"o":"m 83 933 q 94 964 83 953 q 125 975 106 975 l 204 975 q 235 964 224 975 q 246 933 246 953 l 246 42 q 235 11 246 22 q 204 0 224 0 l 125 0 q 94 11 106 0 q 83 42 83 22 l 83 933 m 3 1143 q 28 1206 3 1179 q 92 1233 54 1233 q 135 1221 118 1233 q 165 1186 153 1208 q 197 1220 176 1207 q 242 1233 218 1233 q 303 1206 279 1233 q 326 1143 326 1179 q 302 1081 326 1107 q 242 1054 278 1054 q 197 1067 218 1054 q 165 1101 176 1081 q 135 1067 154 1081 q 92 1054 117 1054 q 29 1081 56 1054 q 3 1143 3 1107 z "},"Ì":{"ha":329,"x_min":36,"x_max":306,"o":"m 83 933 q 94 964 83 953 q 125 975 106 975 l 204 975 q 235 964 224 975 q 246 933 246 953 l 246 42 q 235 11 246 22 q 204 0 224 0 l 125 0 q 94 11 106 0 q 83 42 83 22 l 83 933 m 60 1215 q 44 1265 36 1247 q 92 1283 53 1283 l 168 1283 q 189 1278 179 1283 q 204 1263 199 1272 l 290 1110 q 297 1067 306 1083 q 257 1051 288 1051 l 211 1051 q 178 1067 190 1051 l 60 1215 z "},"Ó":{"ha":1069,"x_min":28,"x_max":1042,"o":"m 535 -14 q 340 26 432 -14 q 179 133 249 65 q 69 292 110 200 q 28 488 28 383 q 68 683 28 592 q 177 842 108 774 q 338 949 246 910 q 535 989 431 989 q 730 950 638 989 q 892 843 822 911 q 1001 684 961 775 q 1042 488 1042 593 q 1001 293 1042 385 q 892 133 961 201 q 731 26 822 65 q 535 -14 639 -14 m 225 615 q 199 488 199 557 q 224 362 199 422 q 295 256 250 301 q 402 182 340 210 q 535 154 464 154 q 668 181 607 154 q 774 254 729 208 q 845 360 819 300 q 871 488 871 421 q 846 615 871 554 q 776 721 821 675 q 669 794 731 767 q 535 821 607 821 q 432 806 481 821 q 344 763 383 790 q 274 697 304 735 q 225 615 243 660 m 442 1051 q 402 1067 411 1051 q 408 1110 393 1083 l 496 1263 q 532 1283 510 1283 l 607 1283 q 655 1265 646 1283 q 639 1215 664 1247 l 521 1067 q 489 1051 508 1051 l 442 1051 m 540 408 q 483 431 508 408 q 457 488 457 454 q 481 545 457 522 q 540 568 506 568 q 599 546 576 568 q 622 488 622 524 q 599 430 622 451 q 540 408 575 408 z "},"Ô":{"ha":1069,"x_min":28,"x_max":1042,"o":"m 28 488 q 68 683 28 592 q 177 842 108 774 q 338 949 246 910 q 535 989 431 989 q 730 950 638 989 q 892 843 822 911 q 1001 684 961 775 q 1042 488 1042 593 q 1001 293 1042 385 q 892 133 961 201 q 731 26 822 65 q 535 -14 639 -14 q 340 26 432 -14 q 179 133 249 65 q 69 292 110 200 q 28 488 28 383 m 225 615 q 199 488 199 557 q 224 362 199 422 q 295 256 250 301 q 402 182 340 210 q 535 154 464 154 q 668 181 607 154 q 774 254 729 208 q 845 360 819 300 q 871 488 871 421 q 846 615 871 554 q 776 721 821 675 q 669 794 731 767 q 535 821 607 821 q 432 806 481 821 q 344 763 383 790 q 274 697 304 735 q 225 615 243 660 m 410 1051 q 369 1067 378 1051 q 376 1111 360 1083 l 469 1264 q 506 1283 483 1283 l 561 1283 q 597 1264 585 1283 l 692 1113 q 700 1068 710 1085 q 658 1051 690 1051 l 610 1051 q 574 1072 588 1051 l 532 1146 l 492 1072 q 454 1051 478 1051 l 410 1051 m 457 488 q 481 545 457 522 q 540 568 506 568 q 599 546 576 568 q 622 488 622 524 q 599 430 622 451 q 540 408 575 408 q 483 431 508 408 q 457 488 457 454 z "},"Ò":{"ha":1069,"x_min":28,"x_max":1042,"o":"m 535 -14 q 340 26 432 -14 q 179 133 249 65 q 69 292 110 200 q 28 488 28 383 q 68 683 28 592 q 177 842 108 774 q 338 949 246 910 q 535 989 431 989 q 730 950 638 989 q 892 843 822 911 q 1001 684 961 775 q 1042 488 1042 593 q 1001 293 1042 385 q 892 133 961 201 q 731 26 822 65 q 535 -14 639 -14 m 225 615 q 199 488 199 557 q 224 362 199 422 q 295 256 250 301 q 402 182 340 210 q 535 154 464 154 q 668 181 607 154 q 774 254 729 208 q 845 360 819 300 q 871 488 871 421 q 846 615 871 554 q 776 721 821 675 q 669 794 731 767 q 535 821 607 821 q 432 806 481 821 q 344 763 383 790 q 274 697 304 735 q 225 615 243 660 m 429 1215 q 414 1265 406 1247 q 461 1283 422 1283 l 538 1283 q 558 1278 549 1283 q 574 1263 568 1272 l 660 1110 q 666 1067 675 1083 q 626 1051 657 1051 l 581 1051 q 547 1067 560 1051 l 429 1215 m 540 408 q 483 431 508 408 q 457 488 457 454 q 481 545 457 522 q 540 568 506 568 q 599 546 576 568 q 622 488 622 524 q 599 430 622 451 q 540 408 575 408 z "},"Ú":{"ha":869,"x_min":83,"x_max":786,"o":"m 83 933 q 94 964 83 953 q 125 975 106 975 l 204 975 q 235 964 224 975 q 246 933 246 953 l 246 372 q 260 297 246 331 q 326 203 279 239 q 436 167 374 167 q 511 184 476 167 q 571 231 546 201 q 610 297 596 260 q 625 372 625 333 l 625 933 q 636 964 625 953 q 667 975 647 975 l 744 975 q 775 964 764 975 q 786 933 786 953 l 786 372 q 760 233 786 300 q 687 114 733 165 q 576 31 640 63 q 436 0 511 0 q 297 31 361 0 q 185 113 232 61 q 110 231 138 164 q 83 372 83 299 l 83 933 m 342 1051 q 302 1067 311 1051 q 308 1110 293 1083 l 396 1263 q 432 1283 410 1283 l 507 1283 q 555 1265 546 1283 q 539 1215 564 1247 l 421 1067 q 389 1051 408 1051 l 342 1051 z "},"Û":{"ha":869,"x_min":83,"x_max":786,"o":"m 83 933 q 94 964 83 953 q 125 975 106 975 l 204 975 q 235 964 224 975 q 246 933 246 953 l 246 372 q 260 297 246 331 q 326 203 279 239 q 436 167 374 167 q 511 184 476 167 q 571 231 546 201 q 610 297 596 260 q 625 372 625 333 l 625 933 q 636 964 625 953 q 667 975 647 975 l 744 975 q 775 964 764 975 q 786 933 786 953 l 786 372 q 760 233 786 300 q 687 114 733 165 q 576 31 640 63 q 436 0 511 0 q 297 31 361 0 q 185 113 232 61 q 110 231 138 164 q 83 372 83 299 l 83 933 m 310 1051 q 269 1067 278 1051 q 276 1111 260 1083 l 369 1264 q 406 1283 383 1283 l 461 1283 q 497 1264 485 1283 l 592 1113 q 600 1068 610 1085 q 558 1051 590 1051 l 510 1051 q 474 1072 488 1051 l 432 1146 l 392 1072 q 354 1051 378 1051 l 310 1051 z "},"Ù":{"ha":869,"x_min":83,"x_max":786,"o":"m 83 933 q 94 964 83 953 q 125 975 106 975 l 204 975 q 235 964 224 975 q 246 933 246 953 l 246 372 q 260 297 246 331 q 326 203 279 239 q 436 167 374 167 q 511 184 476 167 q 571 231 546 201 q 610 297 596 260 q 625 372 625 333 l 625 933 q 636 964 625 953 q 667 975 647 975 l 744 975 q 775 964 764 975 q 786 933 786 953 l 786 372 q 760 233 786 300 q 687 114 733 165 q 576 31 640 63 q 436 0 511 0 q 297 31 361 0 q 185 113 232 61 q 110 231 138 164 q 83 372 83 299 l 83 933 m 329 1215 q 314 1265 306 1247 q 361 1283 322 1283 l 438 1283 q 458 1278 449 1283 q 474 1263 468 1272 l 560 1110 q 566 1067 575 1083 q 526 1051 557 1051 l 481 1051 q 447 1067 460 1051 l 329 1215 z "}}}
